<svg width="728" height="752" viewBox="0 0 728 752" fill="none" xmlns="http://www.w3.org/2000/svg">
<g clip-path="url(#clip0_2324_87142)">
<circle cx="306.5" cy="210.5" r="7.5" fill="#F5CC63"/>
<path d="M277 294L270 308.5H285.5L277 294Z" fill="#BBA64A"/>
<path fill-rule="evenodd" clip-rule="evenodd" d="M352.5 260V265.5C352.5 268.814 349.814 271.5 346.5 271.5H343.5C342.395 271.5 341.5 272.395 341.5 273.5V276C341.5 279.314 338.814 282 335.5 282H333.5C332.395 282 331.5 282.895 331.5 284V291H327.5V284C327.5 280.686 330.186 278 333.5 278H335.5C336.605 278 337.5 277.105 337.5 276V273.5C337.5 270.186 340.186 267.5 343.5 267.5H346.5C347.605 267.5 348.5 266.605 348.5 265.5V260H352.5Z" fill="#E87C5D"/>
<path opacity="0.96" fill-rule="evenodd" clip-rule="evenodd" d="M105.602 86.0122L107.799 90.3247C109.123 92.9229 108.09 96.1024 105.492 97.4263L103.14 98.6248C102.274 99.0661 101.929 100.126 102.371 100.992L103.369 102.952C104.693 105.55 103.66 108.73 101.062 110.054L99.4938 110.853C98.6277 111.294 98.2833 112.354 98.7246 113.22L101.521 118.709L98.3849 120.307L95.5883 114.818C94.2644 112.22 95.2975 109.04 97.8957 107.716L99.4639 106.917C100.33 106.476 100.674 105.416 100.233 104.55L99.2343 102.59C97.9104 99.9918 98.9435 96.8123 101.542 95.4885L103.894 94.2899C104.76 93.8486 105.104 92.7888 104.663 91.9227L102.466 87.6103L105.602 86.0122Z" fill="#E87C5D"/>
<path opacity="0.98" d="M238.853 127.317L226.462 135.435L238.686 142.779L238.853 127.317Z" fill="#BBA64A"/>
<path d="M352.651 110.228L354.123 100.68L345.23 103.399L352.651 110.228Z" fill="#BBA64A"/>
<path opacity="0.71" d="M381.203 124.452L367.707 123.563L372.584 135.635L381.203 124.452Z" fill="#BBA64A"/>
<path opacity="0.74" fill-rule="evenodd" clip-rule="evenodd" d="M596.817 73.9318L601.892 74.9182C604.95 75.5126 606.947 78.4731 606.352 81.5308L605.814 84.299C605.616 85.3182 606.282 86.305 607.301 86.5032L609.608 86.9516C612.665 87.5459 614.662 90.5064 614.068 93.5641L613.709 95.4096C613.511 96.4288 614.177 97.4156 615.196 97.6137L621.655 98.8693L620.938 102.56L614.479 101.305C611.421 100.71 609.424 97.7498 610.018 94.6921L610.377 92.8467C610.575 91.8274 609.91 90.8406 608.89 90.6425L606.583 90.1941C603.526 89.5997 601.529 86.6392 602.123 83.5815L602.661 80.8133C602.859 79.7941 602.194 78.8073 601.175 78.6092L596.1 77.6227L596.817 73.9318Z" fill="#E87C5D"/>
<path opacity="0.94" fill-rule="evenodd" clip-rule="evenodd" d="M683.467 70.7075L678.692 67.3636C675.814 65.3489 675.115 61.3831 677.13 58.5058L678.954 55.9009C679.625 54.9418 679.392 53.6199 678.433 52.9483L676.262 51.4284C673.385 49.4137 672.686 45.4479 674.7 42.5706L675.916 40.834C676.588 39.8749 676.355 38.553 675.396 37.8814L669.318 33.6255L671.75 30.1523L677.828 34.4082C680.705 36.4229 681.404 40.3887 679.39 43.266L678.174 45.0026C677.502 45.9617 677.735 47.2836 678.694 47.9552L680.865 49.4751C683.742 51.4898 684.442 55.4556 682.427 58.3329L680.603 60.9378C679.931 61.8969 680.164 63.2188 681.124 63.8904L685.899 67.2343L683.467 70.7075Z" fill="#E87C5D"/>
<path opacity="0.94" d="M2.57673 229.94L-0.179369 225.603L11.5679 221.669L14.6394 225.928L2.57673 229.94Z" fill="#3B83C6"/>
<circle opacity="0.9" cx="137.06" cy="229.508" r="6.3" transform="rotate(-95 137.06 229.508)" fill="#F5CC63"/>
<path opacity="0.74" d="M347.229 146.303L363.301 155.496L364.545 137.715L347.229 146.303Z" fill="#BBA64A"/>
<path opacity="0.83" d="M458.873 126.912L451.735 129.714L449.317 111.386L456.43 108.099L458.873 126.912Z" fill="#3B83C6"/>
<path opacity="0.93" d="M580.64 212.75L565.184 221.399L579.151 231.178L580.64 212.75Z" fill="#BBA64A"/>
<path opacity="0.76" d="M687.729 208.526L684.245 216.148L668.431 203.575L671.527 195.592L687.729 208.526Z" fill="#3B83C6"/>
<path opacity="0.89" d="M3.25804 322.389L0.168242 315.892L17.163 312.431L20.7044 318.872L3.25804 322.389Z" fill="#3B83C6"/>
<circle opacity="0.93" cx="161.668" cy="314.154" r="8.1" transform="rotate(-177 161.668 314.154)" fill="#F5CC63"/>
<path opacity="0.88" d="M325.925 375.548L311.484 374.343L316.483 387.367L325.925 375.548Z" fill="#BBA64A"/>
<path opacity="0.84" d="M409.475 370.318L403.955 377.242L390.956 360.31L396.171 352.917L409.475 370.318Z" fill="#3B83C6"/>
<path opacity="0.97" d="M507.954 303.668L512.336 296.805L525.853 311.042L521.794 318.304L507.954 303.668Z" fill="#3B83C6"/>
<path opacity="0.77" d="M665.856 368.653L676.981 366.845L670.758 357.957L665.856 368.653Z" fill="#BBA64A"/>
<circle opacity="0.74" cx="77.1379" cy="407.986" r="5.175" transform="rotate(-12 77.1379 407.986)" fill="#F5CC63"/>
<path opacity="0.99" fill-rule="evenodd" clip-rule="evenodd" d="M149.822 486.961L144.111 489.269C140.669 490.659 136.753 488.997 135.363 485.555L134.104 482.44C133.64 481.293 132.335 480.739 131.188 481.202L128.592 482.251C125.151 483.641 121.234 481.979 119.844 478.538L119.005 476.461C118.541 475.314 117.236 474.76 116.089 475.223L108.819 478.16L107.141 474.006L114.41 471.069C117.851 469.679 121.768 471.342 123.158 474.783L123.997 476.86C124.461 478.007 125.766 478.561 126.913 478.097L129.51 477.049C132.951 475.658 136.867 477.321 138.258 480.762L139.516 483.877C139.98 485.024 141.285 485.578 142.432 485.115L148.144 482.807L149.822 486.961Z" fill="#E87C5D"/>
<circle opacity="0.82" cx="295.848" cy="441.822" r="7.2" transform="rotate(-46 295.848 441.822)" fill="#F5CC63"/>
<path opacity="0.8" d="M469.961 414.349L480.776 427.134L487.333 412.407L469.961 414.349Z" fill="#BBA64A"/>
<circle opacity="0.93" cx="584.216" cy="445.676" r="6.15" transform="rotate(-20 584.216 445.676)" fill="#F5CC63"/>
<circle opacity="0.97" cx="615.504" cy="424.342" r="4.95" transform="rotate(-153 615.504 424.342)" fill="#F5CC63"/>
<circle cx="87.2517" cy="569.125" r="5.1" transform="rotate(-133 87.2517 569.125)" fill="#F5CC63"/>
<circle opacity="0.93" cx="206.68" cy="619.473" r="5.775" transform="rotate(-6 206.68 619.473)" fill="#F5CC63"/>
<circle opacity="0.87" cx="242.827" cy="534.677" r="8.625" transform="rotate(85 242.827 534.677)" fill="#F5CC63"/>
<circle opacity="0.79" cx="369.944" cy="525.157" r="4.725" transform="rotate(110 369.944 525.157)" fill="#F5CC63"/>
<path opacity="0.82" d="M500.822 543.464L493.062 558.846L509.645 559.135L500.822 543.464Z" fill="#BBA64A"/>
<path opacity="0.92" fill-rule="evenodd" clip-rule="evenodd" d="M681.502 602.274L685.035 606.198C687.164 608.562 686.973 612.204 684.609 614.333L682.469 616.26C681.681 616.969 681.617 618.183 682.327 618.971L683.933 620.755C686.061 623.119 685.87 626.761 683.506 628.89L682.08 630.174C681.292 630.884 681.228 632.098 681.937 632.886L686.434 637.88L683.58 640.449L679.084 635.455C676.955 633.091 677.146 629.449 679.51 627.321L680.937 626.036C681.725 625.326 681.789 624.112 681.079 623.324L679.473 621.541C677.345 619.177 677.535 615.535 679.899 613.406L682.04 611.479C682.828 610.769 682.891 609.555 682.182 608.767L678.649 604.844L681.502 602.274Z" fill="#E87C5D"/>
<path opacity="0.73" d="M101.366 738.033L109.1 737.569L105.7 755.935L97.8398 756.873L101.366 738.033Z" fill="#3B83C6"/>
<path d="M212.26 742.52L219.893 736.886L228.65 758.013L221.203 764.218L212.26 742.52Z" fill="#3B83C6"/>
<path opacity="0.7" d="M338.674 710.468L354.649 720.752L356.878 702.598L338.674 710.468Z" fill="#BBA64A"/>
<path opacity="0.72" d="M362.748 655.311L356.379 643.93L349.178 654.214L362.748 655.311Z" fill="#BBA64A"/>
<path opacity="0.84" d="M539.954 670.627L534.13 661.738L528.861 670.507L539.954 670.627Z" fill="#BBA64A"/>
<path opacity="0.79" d="M633.359 744.301L623.925 728.743L614.386 743.432L633.359 744.301Z" fill="#BBA64A"/>
</g>
<defs>
<clipPath id="clip0_2324_87142">
<rect width="728" height="811" rx="16" fill="white"/>
</clipPath>
</defs>
</svg>
