<svg width="374" height="752" viewBox="0 0 374 752" fill="none" xmlns="http://www.w3.org/2000/svg">
<g clip-path="url(#clip0_2733_129922)">
<circle cx="142.915" cy="151.348" r="7.5" fill="#F5CC63"/>
<path d="M113.415 234.848L106.415 249.348H121.915L113.415 234.848Z" fill="#BBA64A"/>
<path fill-rule="evenodd" clip-rule="evenodd" d="M188.915 200.848V206.348C188.915 209.661 186.229 212.348 182.915 212.348H179.915C178.81 212.348 177.915 213.243 177.915 214.348V216.848C177.915 220.161 175.229 222.848 171.915 222.848H169.915C168.81 222.848 167.915 223.743 167.915 224.848V231.848H163.915V224.848C163.915 221.534 166.601 218.848 169.915 218.848H171.915C173.02 218.848 173.915 217.952 173.915 216.848V214.348C173.915 211.034 176.601 208.348 179.915 208.348H182.915C184.02 208.348 184.915 207.452 184.915 206.348V200.848H188.915Z" fill="#E87C5D"/>
<path opacity="0.98" d="M75.2682 68.1645L62.8774 76.2823L75.1006 83.6267L75.2682 68.1645Z" fill="#BBA64A"/>
<path d="M189.066 51.0756L190.538 41.5278L181.645 44.2469L189.066 51.0756Z" fill="#BBA64A"/>
<path opacity="0.71" d="M217.618 65.2995L204.122 64.4104L208.999 76.4823L217.618 65.2995Z" fill="#BBA64A"/>
<path opacity="0.74" d="M183.644 87.1505L199.716 96.3441L200.96 78.5625L183.644 87.1505Z" fill="#BBA64A"/>
<path opacity="0.83" d="M295.288 67.7592L288.15 70.5617L285.732 52.2331L292.845 48.9463L295.288 67.7592Z" fill="#3B83C6"/>
<circle opacity="0.93" cx="-1.91693" cy="255.002" r="8.1" transform="rotate(-177 -1.91693 255.002)" fill="#F5CC63"/>
<path opacity="0.88" d="M162.34 316.396L147.899 315.191L152.898 328.215L162.34 316.396Z" fill="#BBA64A"/>
<path opacity="0.84" d="M245.89 311.166L240.37 318.089L227.371 301.157L232.586 293.765L245.89 311.166Z" fill="#3B83C6"/>
<path opacity="0.97" d="M344.369 244.516L348.752 237.653L362.268 251.889L358.209 259.152L344.369 244.516Z" fill="#3B83C6"/>
<circle opacity="0.82" cx="132.263" cy="382.67" r="7.2" transform="rotate(-46 132.263 382.67)" fill="#F5CC63"/>
<path opacity="0.8" d="M306.376 355.197L317.191 367.981L323.748 353.255L306.376 355.197Z" fill="#BBA64A"/>
<circle opacity="0.93" cx="43.0951" cy="560.321" r="5.775" transform="rotate(-6 43.0951 560.321)" fill="#F5CC63"/>
<circle opacity="0.87" cx="79.2416" cy="475.525" r="8.625" transform="rotate(85 79.2416 475.525)" fill="#F5CC63"/>
<circle opacity="0.79" cx="206.359" cy="466.005" r="4.725" transform="rotate(110 206.359 466.005)" fill="#F5CC63"/>
<path opacity="0.82" d="M337.237 484.312L329.477 499.694L346.06 499.983L337.237 484.312Z" fill="#BBA64A"/>
<path d="M48.6751 683.368L56.3076 677.733L65.065 698.861L57.618 705.066L48.6751 683.368Z" fill="#3B83C6"/>
<path opacity="0.7" d="M175.089 651.316L191.064 661.6L193.293 643.446L175.089 651.316Z" fill="#BBA64A"/>
<path opacity="0.72" d="M199.163 596.159L192.794 584.778L185.593 595.062L199.163 596.159Z" fill="#BBA64A"/>
<path opacity="0.84" d="M376.369 611.475L370.545 602.585L365.276 611.354L376.369 611.475Z" fill="#BBA64A"/>
</g>
<defs>
<clipPath id="clip0_2733_129922">
<rect width="374" height="752" rx="16" fill="white"/>
</clipPath>
</defs>
</svg>
