<svg width="25" height="24" viewBox="0 0 25 24" fill="none" xmlns="http://www.w3.org/2000/svg">
<path d="M12.5715 13.2929L16.218 9.64645C16.4132 9.45118 16.7298 9.45118 16.9251 9.64645C17.1203 9.84171 17.1203 10.1583 16.9251 10.3536L12.9251 14.3536C12.7298 14.5488 12.4132 14.5488 12.218 14.3536L8.21798 10.3536C8.02272 10.1583 8.02272 9.84171 8.21798 9.64645C8.41324 9.45118 8.72982 9.45118 8.92509 9.64645L12.5715 13.2929Z" fill="#999999"/>
<path d="M12.5715 13.2929L16.218 9.64645C16.4132 9.45118 16.7298 9.45118 16.9251 9.64645C17.1203 9.84171 17.1203 10.1583 16.9251 10.3536L12.9251 14.3536C12.7298 14.5488 12.4132 14.5488 12.218 14.3536L8.21798 10.3536C8.02272 10.1583 8.02272 9.84171 8.21798 9.64645C8.41324 9.45118 8.72982 9.45118 8.92509 9.64645L12.5715 13.2929Z" fill="#999999"/>
</svg>
