<svg width="32" height="32" viewBox="0 0 32 32" fill="none" xmlns="http://www.w3.org/2000/svg">
<path d="M26 28C27.625 28 29.0625 27.4375 30.25 26.25C31.375 25.125 32 23.6875 32 22V10C32 8.375 31.375 6.9375 30.25 5.75C29.0625 4.625 27.625 4 26 4H20.75C20.5 4 20.3125 4.125 20.1875 4.25C20.0625 4.375 20 4.5625 20 4.75V6.25C20 6.5 20.0625 6.6875 20.1875 6.8125C20.3125 6.9375 20.5 7 20.75 7H26C26.8125 7 27.5 7.3125 28.125 7.875C28.6875 8.5 29 9.1875 29 10V22C29 22.875 28.6875 23.5625 28.125 24.125C27.5 24.75 26.8125 25 26 25H20.75C20.5 25 20.3125 25.125 20.1875 25.25C20.0625 25.375 20 25.5625 20 25.75V27.25C20 27.5 20.0625 27.6875 20.1875 27.8125C20.3125 27.9375 20.5 28 20.75 28H26ZM10.4375 5.1875V5.25C10.5625 5.125 10.75 5 11 5C11.1875 5 11.375 5.0625 11.5 5.1875L21.8125 15.4375C21.9375 15.625 22 15.8125 22 16C22 16.25 21.9375 16.375 21.8125 16.5L11.5 26.75C11.375 26.9375 11.1875 27 11 27C10.75 27 10.5625 26.9375 10.4375 26.75L9.1875 25.5625C9.0625 25.4375 9 25.25 9 25C9 24.8125 9.0625 24.625 9.25 24.5L16.3125 17.625H0.75C0.5 17.625 0.3125 17.5625 0.1875 17.4375C0.0625 17.3125 0 17.125 0 16.875V15.125C0 14.9375 0.0625 14.75 0.1875 14.625C0.3125 14.5 0.5 14.375 0.75 14.375H16.3125L9.25 7.5C9.0625 7.375 9 7.25 9 7C9 6.8125 9.0625 6.625 9.25 6.4375L10.4375 5.1875Z" fill="white"/>
</svg>
