<svg width="34" height="34" viewBox="0 0 34 34" fill="none" xmlns="http://www.w3.org/2000/svg">
<path d="M11.4 9.33086C11.4 11.4309 13.5 14.2309 13.5 14.2309L13.5 28.6309C13.5 29.1831 13.9477 29.6309 14.5 29.6309L20.2 29.6309C20.7523 29.6309 21.2 29.1831 21.2 28.6309L21.2 14.2309C21.2 14.2309 23.3 11.4309 23.3 9.33086M11.4 9.33086L11.4 6.13086C11.4 5.57858 11.8477 5.13086 12.4 5.13086L22.3 5.13086C22.8523 5.13086 23.3 5.57792 23.3 6.13021C23.3 7.02501 23.3 8.34429 23.3 9.33086M11.4 9.33086C11.4 9.33086 18.6528 9.33086 23.3 9.33086" stroke="white" stroke-width="1.4" stroke-linejoin="round"/>
<path d="M18.5406 19.8305C18.5406 19.3909 18.4703 18.9671 18.3365 18.6325C18.2702 18.4668 18.1772 18.2951 18.0454 18.1557C17.9124 18.0151 17.7015 17.8705 17.4205 17.8705C17.1396 17.8705 16.9287 18.0151 16.7957 18.1557C16.6639 18.2951 16.5709 18.4668 16.5046 18.6325C16.3708 18.9671 16.3005 19.3909 16.3005 19.8305C16.3005 20.2701 16.3708 20.6938 16.5046 21.0284C16.5709 21.1941 16.6639 21.3658 16.7957 21.5052C16.9287 21.6458 17.1396 21.7905 17.4205 21.7905C17.7015 21.7905 17.9124 21.6458 18.0454 21.5052C18.1772 21.3658 18.2702 21.1941 18.3365 21.0284C18.4703 20.6938 18.5406 20.2701 18.5406 19.8305Z" stroke="white" stroke-width="1.12"/>
</svg>
