<svg width="17" height="15" viewBox="0 0 17 15" fill="none" xmlns="http://www.w3.org/2000/svg">
<path d="M5.75 3.25C4.90625 3.25 4.25 3.9375 4.25 4.75C4.25 5.59375 4.90625 6.25 5.75 6.25C6.5625 6.25 7.25 5.59375 7.25 4.75C7.25 3.9375 6.5625 3.25 5.75 3.25ZM14.9688 0.5H2.96875C1.875 0.5 0.96875 1.40625 0.96875 2.5V12.5C0.96875 13.625 1.875 14.5 2.96875 14.5H14.9688C16.0625 14.5 16.9688 13.625 16.9688 12.5V2.5C16.9688 1.40625 16.0938 0.5 14.9688 0.5ZM15.4688 12.3125L11.1875 6.5C11.0938 6.34375 10.9375 6.25 10.75 6.25C10.5312 6.25 10.375 6.34375 10.25 6.5L6.9375 11L5.78125 9.5625C5.65625 9.4375 5.5 9.34375 5.3125 9.34375C5.125 9.34375 4.96875 9.4375 4.84375 9.5625L2.5 12.5L2.46875 2.5C2.46875 2.25 2.71875 2 2.96875 2H14.9688C15.25 2 15.4688 2.25 15.4688 2.5V12.3125Z" fill="white"/>
</svg>
