<svg width="181" height="40" viewBox="0 0 181 40" fill="none" xmlns="http://www.w3.org/2000/svg">
<g clip-path="url(#clip0_2847_132841)">
<path d="M19.7427 25.777C19.7427 24.4812 20.8619 23.6416 22.6691 23.6416C24.0571 23.6416 25.092 23.8499 25.9565 24.2916V26.2499C25.2645 27.1749 23.9508 28.1437 22.4685 28.1437C20.7075 28.1437 19.7427 27.2833 19.7427 25.7687V25.777ZM17.8513 15.5645L17.6146 15.7103L19.0808 18.6749L19.3516 18.5228C20.5229 17.8374 21.7344 17.5374 23.2989 17.5374C24.5023 17.5374 25.9565 17.9687 25.9565 19.9937V20.7833C24.928 20.4249 23.848 20.2523 22.7634 20.2728C18.6596 20.2728 16.2065 22.3562 16.2065 25.8562C16.2065 29.8874 19.0968 31.6645 21.957 31.6645C23.3811 31.6645 24.7852 31.0228 25.9565 29.9978V31.327H29.5829V19.8249C29.5829 16.1603 27.3224 14.052 23.3952 14.052C21.2049 14.052 19.4559 14.5333 17.8513 15.5645Z" fill="white"/>
<path d="M43.7255 16.3124C42.7908 14.8541 41.4089 14.052 39.4212 14.052C38.7754 14.0511 38.1362 14.188 37.5435 14.4542C36.9507 14.7205 36.4169 15.1105 35.9753 15.5999V14.3958H32.2927V31.3228H35.9713V21.4583C35.9713 18.9249 36.8839 17.6291 38.6971 17.6291C40.3238 17.6291 41.4149 18.3374 41.4149 21.7833V31.3228H45.1075V21.4583C45.1075 18.9249 46.0261 17.6291 47.8293 17.6291C49.462 17.6291 50.5451 18.3374 50.5451 21.7833V31.3228H54.2257V21.652C54.2257 16.6187 52.3102 14.052 48.5474 14.052C46.1324 14.052 44.8508 14.9624 43.7255 16.3124Z" fill="white"/>
<path d="M63.8352 17.6291C66.0095 17.6291 67.0625 19.4541 67.0625 23.2353C67.0625 26.4624 66.0095 28.0958 63.9576 28.0958C62.5776 28.0958 61.2458 27.0437 60.5478 26.0478C60.5478 26.0478 60.5478 19.7458 60.5478 19.5187C61.0332 18.8937 62.2406 17.6291 63.8352 17.6291ZM60.1727 4.81659L56.9635 6.56659V31.3228H60.618V30.1103C61.4785 30.902 62.726 31.6645 64.2544 31.6645C67.251 31.6645 70.7571 29.4208 70.7571 23.1228C70.7571 17.352 68.4384 14.0437 64.4149 14.0437C63.073 14.0437 61.8455 14.6291 60.618 15.6666V4.58325L60.1727 4.81659Z" fill="white"/>
<path d="M75.4484 25.777C75.4484 24.4812 76.5717 23.6416 78.3809 23.6416C79.7588 23.6416 80.7878 23.8499 81.6543 24.2916V26.2499C80.9703 27.1749 79.6485 28.1437 78.1642 28.1437C76.4152 28.1437 75.4484 27.2833 75.4484 25.7687V25.777ZM73.555 15.5603L73.3203 15.7062L74.7825 18.6708L75.0533 18.5187C76.2247 17.8333 77.4402 17.5333 79.0006 17.5333C80.2141 17.5333 81.6543 17.9645 81.6543 19.9895V20.7791C80.6288 20.4193 79.5512 20.2466 78.4691 20.2687C74.3653 20.2687 71.9143 22.352 71.9143 25.852C71.9143 29.8833 74.8026 31.6603 77.6608 31.6603C79.0849 31.6603 80.4829 31.0187 81.6543 29.9937V31.3228H85.2807V19.8249C85.2807 16.1603 83.0262 14.052 79.0929 14.052C76.9167 14.052 75.1536 14.5333 73.555 15.5645" fill="white"/>
<path d="M0.882532 18.9772C0.882532 22.3792 3.30549 23.2959 6.99808 24.2501C10.2273 25.0834 10.809 25.6897 10.809 26.4855C10.809 26.9917 10.809 28.348 7.44737 28.348C5.79455 28.3434 4.20004 27.7131 2.9625 26.5751L2.66364 26.2897L0 28.5834L0.361036 28.9584C2.08398 30.7209 4.529 31.7105 7.24078 31.7105C11.8701 31.7105 14.5357 29.7584 14.5357 26.3147C14.5357 22.8709 11.6996 21.8667 8.27976 20.9688C5.1227 20.1147 4.59117 19.6355 4.59117 18.8855C4.59117 17.9042 5.576 17.3313 7.22072 17.3313C8.86544 17.3313 10.115 17.7792 11.2142 18.7688L11.511 19.0376L14.1767 16.648L13.7555 16.2876C11.9022 14.7167 9.89439 13.9792 7.43132 13.9792C3.58027 13.9792 0.882532 16.0292 0.882532 18.9792" fill="white"/>
<path d="M107.107 25.7583C107.126 26.6215 106.951 27.4774 106.596 28.2583C106.262 28.9706 105.768 29.5893 105.156 30.0625C104.493 30.5661 103.744 30.9351 102.949 31.15C102.05 31.3985 101.122 31.5205 100.191 31.5125C99.6185 31.5145 99.0464 31.4685 98.4806 31.375C97.987 31.293 97.4997 31.1747 97.0224 31.0208C96.6535 30.9045 96.294 30.7582 95.9473 30.5833C95.7203 30.4768 95.5094 30.3365 95.3215 30.1666C95.1679 29.9952 95.0625 29.7834 95.0166 29.5541C94.9321 29.1478 94.8957 28.7322 94.9083 28.3166C94.9052 28.028 94.9172 27.7394 94.9444 27.4521C94.9599 27.2745 94.9963 27.0996 95.0527 26.9312C95.0815 26.8256 95.1446 26.7336 95.2312 26.6708C95.3137 26.6247 95.4065 26.6024 95.5 26.6062C95.7087 26.6349 95.9079 26.7141 96.0817 26.8375C96.3384 26.9944 96.658 27.1652 97.0404 27.35C97.473 27.5551 97.9187 27.7292 98.3743 27.8708C98.9353 28.0393 99.5172 28.1207 100.101 28.1125C100.466 28.1175 100.83 28.0734 101.184 27.9812C101.477 27.9061 101.756 27.7807 102.009 27.6104C102.234 27.4575 102.416 27.2455 102.536 26.9958C102.66 26.7297 102.721 26.437 102.715 26.1416C102.722 25.7907 102.604 25.4493 102.384 25.1833C102.137 24.8952 101.839 24.6584 101.507 24.4854C101.107 24.2719 100.695 24.0854 100.272 23.9271C99.8117 23.7548 99.3404 23.5625 98.8576 23.35C98.3718 23.1386 97.8989 22.8965 97.4416 22.625C96.9851 22.3551 96.5695 22.0167 96.208 21.6208C95.831 21.2055 95.5329 20.7199 95.3295 20.1896C95.0947 19.5488 94.9823 18.8666 94.9986 18.1812C94.9899 17.4273 95.1427 16.6808 95.4459 15.9958C95.7436 15.3327 96.185 14.7501 96.7356 14.2937C97.3453 13.7955 98.0411 13.4229 98.7854 13.1958C99.6629 12.922 100.575 12.7872 101.491 12.7958C101.98 12.7952 102.468 12.8321 102.951 12.9062C103.383 12.9727 103.81 13.066 104.231 13.1854C104.564 13.2762 104.89 13.3953 105.204 13.5416C105.403 13.6336 105.592 13.7459 105.769 13.877C105.867 13.9525 105.949 14.0474 106.01 14.1562C106.062 14.2617 106.099 14.3748 106.118 14.4916C106.141 14.6208 106.163 14.7833 106.181 14.975C106.199 15.1666 106.207 15.4062 106.207 15.6895C106.207 16.025 106.207 16.2979 106.181 16.5083C106.17 16.6788 106.14 16.8474 106.09 17.0104C106.064 17.1128 106.004 17.2022 105.92 17.2625C105.844 17.3074 105.757 17.3298 105.669 17.3271C105.49 17.3013 105.319 17.2344 105.168 17.1312C104.94 17.0021 104.657 16.8632 104.317 16.7146C103.932 16.5502 103.538 16.411 103.136 16.2979C102.637 16.1601 102.122 16.0942 101.606 16.1021C101.249 16.0962 100.894 16.1396 100.548 16.2312C100.282 16.3024 100.032 16.4293 99.8144 16.6041C99.631 16.7559 99.484 16.9499 99.3852 17.1708C99.2891 17.3898 99.2405 17.6281 99.2428 17.8687C99.2325 18.2241 99.3538 18.5701 99.5817 18.8354C99.8382 19.1189 100.142 19.3518 100.478 19.5229C100.886 19.7394 101.307 19.926 101.74 20.0812C102.211 20.2562 102.689 20.4437 103.172 20.6479C103.663 20.8571 104.141 21.0964 104.604 21.3646C105.07 21.6336 105.496 21.9719 105.868 22.3687C106.247 22.7821 106.551 23.2644 106.762 23.7916C107.004 24.4162 107.121 25.0853 107.107 25.7583Z" fill="white"/>
<path d="M135.894 30.4457C135.895 30.5635 135.858 30.6782 135.788 30.7707C135.691 30.8807 135.567 30.9608 135.429 31.002C135.208 31.0757 134.98 31.1225 134.749 31.1416C134.385 31.1767 134.02 31.1927 133.656 31.1895C133.285 31.193 132.915 31.177 132.546 31.1416C132.312 31.1217 132.081 31.0749 131.856 31.002C131.717 30.9646 131.593 30.8839 131.499 30.7707C131.433 30.6765 131.399 30.5623 131.401 30.4457V20.6062C131.405 20.0935 131.354 19.582 131.249 19.0812C131.16 18.6613 130.999 18.2613 130.775 17.8999C130.576 17.5834 130.305 17.3218 129.987 17.1374C129.638 16.9534 129.249 16.8631 128.858 16.8749C128.26 16.8976 127.687 17.1263 127.229 17.5249C126.562 18.0821 125.961 18.7192 125.438 19.4228V30.452C125.439 30.5701 125.401 30.6851 125.33 30.777C125.231 30.8888 125.104 30.9691 124.963 31.0082C124.739 31.081 124.508 31.1278 124.275 31.1478C123.917 31.1827 123.558 31.1987 123.2 31.1957C122.835 31.199 122.47 31.183 122.106 31.1478C121.873 31.1278 121.642 31.081 121.418 31.0082C121.277 30.9696 121.15 30.8893 121.051 30.777C120.98 30.6851 120.942 30.5701 120.943 30.452V20.6062C120.948 20.0935 120.897 19.5818 120.791 19.0812C120.709 18.6637 120.558 18.2641 120.345 17.8999C120.145 17.5783 119.869 17.3157 119.543 17.1374C119.195 16.9546 118.808 16.8644 118.418 16.8749C117.815 16.8958 117.235 17.1245 116.771 17.5249C116.108 18.0804 115.513 18.7177 114.998 19.4228V30.452C115 30.5699 114.963 30.6849 114.892 30.777C114.793 30.8883 114.665 30.9684 114.525 31.0082C114.3 31.0809 114.069 31.1277 113.835 31.1478C113.108 31.2117 112.377 31.2117 111.65 31.1478C111.416 31.1277 111.185 31.0809 110.96 31.0082C110.82 30.9684 110.692 30.8883 110.593 30.777C110.523 30.6845 110.486 30.5698 110.487 30.452V13.8562C110.485 13.7405 110.516 13.6268 110.575 13.5291C110.658 13.4204 110.771 13.34 110.898 13.2978C111.093 13.2262 111.295 13.1793 111.5 13.1582C111.806 13.1241 112.114 13.1088 112.423 13.1124C112.739 13.1087 113.056 13.1241 113.371 13.1582C113.571 13.1762 113.766 13.2232 113.953 13.2978C114.07 13.3443 114.173 13.4245 114.248 13.5291C114.309 13.6262 114.34 13.7402 114.338 13.8562V15.7707C115.096 14.884 115.987 14.1311 116.978 13.5416C117.818 13.0556 118.764 12.7996 119.726 12.7978C120.323 12.7892 120.918 12.8592 121.499 13.0062C121.994 13.1402 122.467 13.3509 122.903 13.6312C123.305 13.8893 123.664 14.2129 123.968 14.5895C124.27 14.9699 124.523 15.3902 124.72 15.8395C125.155 15.3461 125.625 14.8859 126.124 14.4624C126.547 14.1044 127.002 13.7897 127.484 13.5228C127.91 13.2895 128.361 13.1091 128.828 12.9853C129.275 12.8669 129.734 12.8074 130.196 12.8082C131.121 12.7783 132.04 12.9693 132.883 13.3666C133.582 13.7135 134.187 14.2336 134.646 14.8812C135.108 15.5534 135.433 16.3161 135.603 17.1228C135.797 18.0114 135.893 18.92 135.89 19.8312L135.894 30.4457Z" fill="white"/>
<path d="M153.926 30.5C153.93 30.5792 153.916 30.6583 153.885 30.7307C153.854 30.8032 153.807 30.8669 153.747 30.9167C153.578 31.0334 153.384 31.105 153.182 31.125C152.804 31.1749 152.424 31.1965 152.044 31.1896C151.653 31.1979 151.261 31.1763 150.873 31.125C150.684 31.1079 150.504 31.0357 150.353 30.9167C150.301 30.8627 150.26 30.7976 150.233 30.7257C150.207 30.6537 150.196 30.5768 150.201 30.5V29.1813C149.565 29.8962 148.802 30.4769 147.955 30.8917C147.074 31.309 146.115 31.5182 145.147 31.5042C144.355 31.5127 143.568 31.3968 142.81 31.1604C142.135 30.9521 141.507 30.6042 140.965 30.1375C140.444 29.6805 140.032 29.1043 139.761 28.4542C139.462 27.7133 139.316 26.9156 139.332 26.1125C139.311 25.2384 139.499 24.3725 139.877 23.5917C140.258 22.8614 140.822 22.2511 141.508 21.825C142.34 21.315 143.252 20.9623 144.202 20.7833C145.436 20.5461 146.69 20.4344 147.945 20.45H149.503V19.4542C149.509 18.9937 149.458 18.5343 149.351 18.0875C149.263 17.7241 149.091 17.3886 148.849 17.1104C148.593 16.836 148.272 16.6369 147.918 16.5333C147.449 16.3991 146.963 16.3367 146.476 16.3479C145.799 16.3393 145.125 16.4269 144.471 16.6083C143.935 16.7601 143.412 16.953 142.904 17.1854C142.44 17.3951 142.058 17.5868 141.759 17.7604C141.535 17.9081 141.279 17.9974 141.015 18.0208C140.887 18.0226 140.763 17.9768 140.666 17.8917C140.555 17.7898 140.469 17.662 140.415 17.5188C140.342 17.3277 140.291 17.1284 140.263 16.925C140.226 16.6663 140.209 16.4052 140.21 16.1438C140.202 15.8369 140.231 15.5302 140.299 15.2313C140.361 15.003 140.478 14.795 140.64 14.6271C140.9 14.3826 141.196 14.1816 141.516 14.0313C141.99 13.7924 142.481 13.5905 142.984 13.4271C143.584 13.2317 144.196 13.08 144.816 12.9729C145.493 12.8532 146.18 12.794 146.867 12.7958C147.949 12.7753 149.028 12.9035 150.077 13.1771C150.885 13.3873 151.636 13.7879 152.271 14.3479C152.857 14.8979 153.289 15.6018 153.523 16.3854C153.805 17.3428 153.941 18.3405 153.924 19.3417L153.926 30.5ZM149.513 23.3958H147.784C147.159 23.386 146.535 23.4426 145.921 23.5646C145.476 23.6468 145.05 23.8173 144.667 24.0667C144.366 24.2654 144.122 24.5446 143.961 24.875C143.806 25.2146 143.729 25.5868 143.736 25.9625C143.721 26.2671 143.77 26.5714 143.88 26.8542C143.99 27.137 144.158 27.3915 144.372 27.6C144.796 27.9958 145.385 28.1938 146.135 28.1938C146.751 28.1991 147.357 28.0252 147.882 27.6917C148.49 27.2926 149.036 26.801 149.503 26.2333L149.513 23.3958Z" fill="white"/>
<path d="M168.684 15.4001C168.684 15.8459 168.672 16.2105 168.648 16.4959C168.634 16.7227 168.597 16.9475 168.54 17.1667C168.511 17.2952 168.445 17.4116 168.351 17.5001C168.266 17.5655 168.162 17.5986 168.056 17.5938C167.947 17.5913 167.838 17.5694 167.735 17.5292L167.334 17.3896C167.184 17.3396 167.019 17.2938 166.841 17.2501C166.647 17.2049 166.448 17.1832 166.249 17.1855C165.992 17.1871 165.737 17.2401 165.499 17.3417C165.218 17.4669 164.955 17.6332 164.719 17.8355C164.406 18.101 164.122 18.4007 163.87 18.7292C163.531 19.168 163.217 19.6272 162.93 20.1042V30.4459C162.931 30.5637 162.893 30.6784 162.823 30.7709C162.724 30.8822 162.597 30.9623 162.456 31.0021C162.232 31.0748 162 31.1216 161.766 31.1417C161.039 31.2056 160.309 31.2056 159.582 31.1417C159.348 31.1219 159.116 31.0751 158.892 31.0021C158.751 30.9623 158.624 30.8822 158.525 30.7709C158.453 30.679 158.415 30.564 158.417 30.4459V13.8563C158.414 13.7403 158.446 13.6263 158.507 13.5292C158.59 13.4201 158.702 13.3395 158.83 13.298C159.024 13.2263 159.226 13.1795 159.432 13.1584C159.738 13.1242 160.046 13.1089 160.354 13.1126C160.671 13.1089 160.988 13.1242 161.303 13.1584C161.502 13.1766 161.698 13.2236 161.885 13.298C162.002 13.345 162.104 13.4251 162.179 13.5292C162.241 13.6263 162.272 13.7403 162.27 13.8563V15.9209C162.626 15.3791 163.021 14.8658 163.451 14.3855C163.77 14.0282 164.124 13.707 164.508 13.4271C164.813 13.2052 165.152 13.0389 165.511 12.9355C165.838 12.8429 166.175 12.7959 166.514 12.7959C166.681 12.7962 166.849 12.8052 167.015 12.823C167.202 12.8428 167.388 12.8741 167.571 12.9167C167.741 12.9536 167.909 13.003 168.072 13.0646C168.186 13.1028 168.292 13.1629 168.385 13.2417C168.447 13.2994 168.497 13.3705 168.53 13.4501C168.566 13.5498 168.593 13.6531 168.61 13.7584C168.64 13.9521 168.658 14.1477 168.664 14.3438C168.684 14.6001 168.684 14.9521 168.684 15.4001Z" fill="white"/>
<path d="M180.919 28.8084C180.929 29.2275 180.896 29.6464 180.821 30.0584C180.785 30.2822 180.696 30.493 180.56 30.6709C180.425 30.8085 180.263 30.9163 180.087 30.9875C179.849 31.0899 179.604 31.1707 179.353 31.2292C179.051 31.3012 178.746 31.3541 178.438 31.3875C178.105 31.4255 177.77 31.4443 177.435 31.4438C176.645 31.4599 175.859 31.3403 175.106 31.0896C174.483 30.8759 173.923 30.5009 173.478 30C173.027 29.4689 172.702 28.8353 172.529 28.15C172.312 27.288 172.209 26.3992 172.224 25.5084V17.0167H170.309C170.082 17.0167 169.908 16.8709 169.789 16.5792C169.645 16.1083 169.585 15.6142 169.611 15.1209C169.608 14.8161 169.622 14.5113 169.655 14.2084C169.673 14.0077 169.719 13.8107 169.789 13.6229C169.834 13.5007 169.912 13.3945 170.014 13.3167C170.106 13.2528 170.216 13.2201 170.327 13.2229H172.224V9.52295C172.223 9.40338 172.258 9.2864 172.322 9.18753C172.415 9.06846 172.54 8.98073 172.681 8.93545C172.907 8.85668 173.142 8.80701 173.379 8.78753C173.672 8.75628 174.033 8.7417 174.463 8.7417C174.892 8.7417 175.265 8.75628 175.564 8.78753C175.799 8.80642 176.031 8.85612 176.254 8.93545C176.393 8.98402 176.516 9.0712 176.611 9.18753C176.682 9.2836 176.72 9.4017 176.719 9.52295V13.2229H180.193C180.304 13.2208 180.413 13.2535 180.506 13.3167C180.607 13.3945 180.685 13.5007 180.731 13.6229C180.8 13.8109 180.845 14.0079 180.863 14.2084C180.896 14.5113 180.912 14.816 180.909 15.1209C180.935 15.6142 180.874 16.1083 180.731 16.5792C180.61 16.8709 180.438 17.0167 180.211 17.0167H176.719V24.8104C176.719 25.7146 176.856 26.3931 177.13 26.8459C177.405 27.3 177.894 27.525 178.598 27.525C178.815 27.5276 179.032 27.5059 179.244 27.4604C179.417 27.4221 179.587 27.372 179.754 27.3104C179.902 27.2563 180.029 27.2063 180.131 27.1625C180.218 27.1221 180.312 27.1001 180.408 27.0979C180.479 27.0993 180.549 27.1217 180.608 27.1625C180.687 27.2276 180.74 27.3201 180.759 27.4229C180.804 27.5966 180.837 27.7735 180.857 27.9521C180.896 28.2358 180.917 28.5218 180.919 28.8084Z" fill="white"/>
<path d="M90.6601 0H89.6572V40H90.6601V0Z" fill="#EC008C"/>
</g>
<defs>
<clipPath id="clip0_2847_132841">
<rect width="180.909" height="40" fill="white"/>
</clipPath>
</defs>
</svg>
