<svg width="79" height="40" viewBox="0 0 79 40" fill="none" xmlns="http://www.w3.org/2000/svg">
<path d="M70.1619 11.2712V21.0054H66.686V14.1771H63.3392V21.0054H59.8633V11.2705H70.1619V11.2712Z" fill="black"/>
<path fill-rule="evenodd" clip-rule="evenodd" d="M52.725 21.3539C55.8366 21.3539 58.1473 19.446 58.1473 16.5538C58.1473 13.7544 56.4425 11.9368 53.5933 11.9368C52.2784 11.9368 51.1934 12.3997 50.3762 13.1983C50.5713 11.5476 51.9672 10.3425 53.5041 10.3425C53.8588 10.3425 56.5291 10.3369 56.5291 10.3369L58.0391 7.44727C58.0391 7.44727 54.6866 7.52358 53.1282 7.52358C49.5673 7.58562 47.1621 10.8223 47.1621 14.7534C47.1621 19.3332 49.5079 21.3539 52.725 21.3539ZM52.7439 14.4963C53.8993 14.4963 54.7002 15.2554 54.7002 16.5534C54.7002 17.7217 53.9885 18.6842 52.7439 18.6869C51.5534 18.6869 50.7525 17.795 50.7525 16.5733C50.7525 15.275 51.5534 14.4963 52.7439 14.4963Z" fill="black"/>
<path d="M44.3324 17.7457C44.3324 17.7457 43.5115 18.2189 42.2855 18.3085C40.876 18.3503 39.6202 17.4601 39.6202 15.8784C39.6202 14.3355 40.7284 13.4513 42.25 13.4513C43.183 13.4513 44.4173 14.0979 44.4173 14.0979C44.4173 14.0979 45.3205 12.4406 45.7883 11.6118C44.9316 10.9625 43.7905 10.6064 42.4634 10.6064C39.1139 10.6064 36.5195 12.7903 36.5195 15.8588C36.5195 18.9664 38.9579 21.0995 42.4634 21.0352C43.4432 20.9987 44.7949 20.6546 45.6187 20.1254L44.3324 17.7457Z" fill="black"/>
<path d="M0.0078125 8.75781L4.82949 17.3762V22.6332L0.0134531 31.2348L0.0078125 8.75781Z" fill="#5B57A2"/>
<path d="M18.5215 14.2407L23.0396 11.4715L32.2861 11.4629L18.5215 19.8952V14.2407Z" fill="#D90751"/>
<path d="M18.4949 8.70758L18.5205 20.1181L13.6875 17.1485V0.0917969L18.4952 8.70758H18.4949Z" fill="#FAB718"/>
<path d="M32.2851 11.4628L23.0382 11.4714L18.4949 8.70758L13.6875 0.0917969L32.2847 11.4628H32.2851Z" fill="#ED6F26"/>
<path d="M18.5205 31.2822V25.7462L13.6875 22.833L13.6902 39.9066L18.5205 31.2822Z" fill="#63B22F"/>
<path d="M23.0279 28.5386L4.82916 17.3762L0.0078125 8.75781L32.2661 28.5273L23.0279 28.5386Z" fill="#1487C9"/>
<path d="M13.6914 39.908L18.521 31.2836L23.0278 28.5396L32.2661 28.5283L13.6914 39.908Z" fill="#017F36"/>
<path d="M0.015625 31.2349L13.7298 22.8338L9.11914 20.0049L4.83166 22.6334L0.015625 31.2349Z" fill="#984995"/>
<path d="M39.6208 27.5556C39.5146 27.691 39.375 27.7931 39.2074 27.8622C39.0355 27.9321 38.8515 27.9678 38.6659 27.967C38.4813 27.9695 38.2978 27.9387 38.1241 27.8761C37.9681 27.8194 37.8255 27.7311 37.7054 27.6166C37.5867 27.502 37.4935 27.3636 37.432 27.2105C37.3653 27.0428 37.332 26.8637 37.3341 26.6833C37.3341 26.5041 37.3649 26.3382 37.429 26.1809C37.4904 26.0233 37.5796 25.8883 37.6914 25.7748C37.8032 25.659 37.9373 25.5708 38.0879 25.5018C38.2415 25.4354 38.4091 25.3996 38.5932 25.3996C38.7917 25.3996 38.9758 25.4244 39.1434 25.4739C39.3109 25.5237 39.4533 25.6066 39.5704 25.7227L39.3667 26.0678C39.2681 25.9785 39.1521 25.9107 39.0259 25.8687C38.906 25.8301 38.7807 25.8106 38.6546 25.811C38.5431 25.811 38.437 25.8329 38.3338 25.8744C38.2321 25.9153 38.1392 25.9753 38.06 26.0512C37.9792 26.1292 37.9154 26.2233 37.8729 26.3273C37.8255 26.4348 37.8032 26.5536 37.8032 26.6859C37.8032 26.8213 37.8281 26.9428 37.8756 27.0476C37.9233 27.1554 37.9874 27.2467 38.0683 27.3237C38.1493 27.4013 38.2442 27.459 38.353 27.4978C38.4622 27.5393 38.5767 27.5586 38.6994 27.5586C38.8501 27.5586 38.9871 27.528 39.1042 27.47C39.2203 27.4139 39.3246 27.3362 39.4115 27.241L39.6208 27.5556ZM40.1958 27.9089V25.452H40.6371V27.2825L42.0721 25.452H42.5134V27.9093H42.0721V26.0788L40.6371 27.9093H40.1958V27.9089ZM45.4366 27.5556C45.328 27.6921 45.1856 27.7978 45.0235 27.8622C44.8514 27.9321 44.6674 27.9677 44.4816 27.967C44.2972 27.9695 44.1137 27.9387 43.9402 27.8761C43.7841 27.8194 43.6414 27.7311 43.5211 27.6166C43.4024 27.502 43.3093 27.3636 43.2477 27.2105C43.181 27.0428 43.1478 26.8637 43.1498 26.6833C43.1498 26.5041 43.1807 26.3382 43.2447 26.1809C43.3064 26.0233 43.3957 25.8883 43.5072 25.7748C43.619 25.659 43.753 25.5708 43.9037 25.5018C44.0628 25.4317 44.2352 25.3968 44.409 25.3996C44.6074 25.3996 44.7915 25.4244 44.9591 25.4739C45.1267 25.5237 45.269 25.6066 45.3865 25.7227L45.1824 26.0678C45.084 25.9784 44.9681 25.9106 44.842 25.8687C44.722 25.8301 44.5967 25.8106 44.4707 25.811C44.2489 25.8117 44.0359 25.8977 43.8758 26.0512C43.7956 26.1298 43.732 26.2237 43.6887 26.3273C43.6412 26.4348 43.619 26.5536 43.619 26.6859C43.619 26.8213 43.6442 26.9428 43.6916 27.0476C43.7391 27.1554 43.8031 27.2467 43.8841 27.3237C43.965 27.4013 44.0603 27.459 44.1691 27.4978C44.2779 27.5363 44.3924 27.5586 44.5152 27.5586C44.6661 27.5586 44.8002 27.528 44.92 27.47C45.036 27.4139 45.1403 27.3362 45.2272 27.241L45.4366 27.5556ZM45.6628 25.452H47.927V25.8883H47.0169V27.9089H46.5756V25.8883H45.6655V25.452H45.6628Z" fill="black"/>
<path fill-rule="evenodd" clip-rule="evenodd" d="M49.9898 27.885C50.1574 27.8325 50.2997 27.7522 50.4225 27.6421L50.2884 27.2997C50.2075 27.3717 50.0986 27.4324 49.9676 27.4822C49.8362 27.5319 49.6882 27.5565 49.5263 27.5565C49.2834 27.5565 49.0823 27.4931 48.9231 27.3634C48.7641 27.2333 48.6775 27.0515 48.658 26.8192H50.5678C50.5874 26.7336 50.5957 26.6371 50.5957 26.5239C50.5957 26.3554 50.5648 26.2037 50.5034 26.0657C50.4463 25.9317 50.3628 25.8105 50.2579 25.7094C50.1515 25.6092 50.0262 25.5313 49.8893 25.4804C49.7459 25.4248 49.5934 25.3967 49.4397 25.3975C49.233 25.3975 49.0515 25.4333 48.8925 25.4997C48.7423 25.5629 48.6064 25.6559 48.4931 25.7731C48.383 25.8896 48.2985 26.0278 48.2449 26.1789C48.1859 26.3397 48.1565 26.5099 48.1583 26.6812C48.1583 26.8746 48.1918 27.0512 48.2532 27.2088C48.3129 27.3614 48.4043 27.4997 48.5213 27.6145C48.6357 27.7274 48.7751 27.8133 48.94 27.874C49.1165 27.9366 49.3028 27.9674 49.4901 27.9649C49.6597 27.9639 49.8282 27.937 49.9898 27.8853V27.885ZM48.873 25.9937C49.0097 25.8696 49.1912 25.8089 49.4201 25.8089C49.6351 25.8089 49.8083 25.867 49.9341 25.9831C50.0598 26.0989 50.1265 26.2592 50.1378 26.4632H48.6301C48.6515 26.2825 48.7378 26.1158 48.873 25.9941V25.9937Z" fill="black"/>
<path d="M51.1953 25.4531H51.5975L52.5524 26.6708L53.4568 25.4531H53.8477V27.9104H53.4067V26.1187L52.5467 27.2588H52.5298L51.6366 26.1184V27.9101H51.1953V25.4531Z" fill="black"/>
<path fill-rule="evenodd" clip-rule="evenodd" d="M55.049 25.4603C54.915 25.4953 54.7871 25.5501 54.6694 25.6229L54.7865 25.9713C54.887 25.9215 54.9876 25.88 55.0881 25.8442C55.1887 25.808 55.3171 25.7915 55.4707 25.7915C55.5934 25.7915 55.6913 25.811 55.7666 25.8495C55.842 25.8854 55.8977 25.9408 55.9369 26.0071C55.976 26.0735 56.0012 26.1561 56.0152 26.2527C56.0291 26.3492 56.0347 26.4541 56.0347 26.5675C55.9444 26.5046 55.8415 26.4621 55.7331 26.4431C55.6283 26.4223 55.5218 26.4112 55.4149 26.4099C55.2835 26.4099 55.1608 26.4295 55.0433 26.4623C54.9262 26.4955 54.8257 26.5453 54.7447 26.6117C54.6621 26.6779 54.5953 26.7618 54.5493 26.8572C54.5001 26.9616 54.4753 27.0759 54.4766 27.1913C54.4766 27.4315 54.5466 27.6193 54.686 27.752C54.8257 27.8844 55.0098 27.9505 55.2388 27.9505C55.4455 27.9505 55.6104 27.9146 55.7358 27.843C55.8615 27.771 55.9621 27.6883 56.0347 27.5944V27.912H56.4478V26.4046C56.4478 26.0841 56.3781 25.8359 56.2358 25.6617C56.0961 25.4879 55.8476 25.3996 55.4959 25.3996C55.3393 25.3996 55.1913 25.4215 55.049 25.4603ZM55.7866 27.4511C55.686 27.5228 55.5546 27.5556 55.3927 27.5556C55.2504 27.5556 55.1385 27.5198 55.0606 27.4508C54.9823 27.3791 54.9431 27.2852 54.9431 27.1691C54.9431 27.1004 54.9571 27.0423 54.9879 26.9899C55.0188 26.9375 55.0606 26.896 55.108 26.8628C55.1599 26.8281 55.2176 26.8029 55.2782 26.7882C55.3426 26.7716 55.4066 26.7633 55.4737 26.7633C55.6917 26.7633 55.8785 26.8157 56.0321 26.9262V27.2381C55.9597 27.3192 55.8772 27.3907 55.7866 27.4508V27.4511ZM60.3431 24.5877C60.4324 24.5466 60.516 24.4775 60.5943 24.3753L60.3541 24.0303C60.2927 24.1132 60.223 24.171 60.1447 24.2015C60.0617 24.2339 59.9757 24.2579 59.8879 24.2731L59.8043 24.2881C59.7316 24.3007 59.6536 24.3146 59.5697 24.3286C59.4351 24.3535 59.3039 24.3942 59.1788 24.45C58.9804 24.5356 58.8215 24.6514 58.7014 24.7977C58.5813 24.944 58.4864 25.1096 58.422 25.2921C58.3568 25.477 58.3128 25.6687 58.291 25.8635C58.2684 26.0625 58.2574 26.2527 58.2574 26.4348C58.2574 26.6697 58.288 26.8821 58.3494 27.0725C58.4111 27.2633 58.4973 27.4232 58.6118 27.553C58.7263 27.6857 58.8633 27.7852 59.0252 27.8569C59.1871 27.9286 59.3686 27.9644 59.5724 27.9644C59.7595 27.9644 59.9327 27.9286 60.089 27.8622C60.2396 27.7984 60.3763 27.7057 60.4911 27.5891C60.6026 27.4757 60.6922 27.3403 60.7536 27.1887C60.8176 27.0367 60.8484 26.8738 60.8484 26.7026C60.8484 26.5178 60.8206 26.3495 60.7675 26.2002C60.7186 26.0579 60.6406 25.9273 60.5385 25.8167C60.4363 25.7079 60.3113 25.623 60.1726 25.5678C60.0198 25.5076 59.8567 25.4777 59.6925 25.4796C59.5863 25.4796 59.4831 25.4935 59.3826 25.521C59.2848 25.5486 59.1909 25.5885 59.1032 25.6398C59.0181 25.6886 58.9402 25.7489 58.8716 25.819C58.8046 25.8883 58.7488 25.9656 58.7097 26.0539H58.6984C58.707 25.9408 58.721 25.825 58.7458 25.7062C58.7711 25.5874 58.8072 25.4739 58.855 25.3664C58.9025 25.2589 58.9638 25.162 59.0392 25.0738C59.1199 24.9847 59.2189 24.9141 59.3295 24.8667C59.451 24.8088 59.5797 24.7671 59.712 24.7426L59.7996 24.7267C59.8869 24.7108 59.9702 24.6955 60.0498 24.6789C60.156 24.657 60.2535 24.6292 60.3431 24.588V24.5877ZM58.7906 26.9484C58.7475 26.809 58.7268 26.6637 58.7293 26.5178C58.748 26.434 58.7821 26.3545 58.8298 26.2832C58.8772 26.2085 58.9386 26.1425 59.0113 26.0841C59.1753 25.9556 59.378 25.8866 59.5863 25.8883C59.8461 25.8883 60.0415 25.9683 60.1782 26.1259C60.3152 26.2858 60.3823 26.4846 60.3823 26.7248C60.3823 26.8436 60.3597 26.9514 60.3209 27.0506C60.2832 27.1485 60.2262 27.2378 60.1533 27.3132C60.0804 27.3886 59.9931 27.4486 59.8965 27.4896C59.796 27.5337 59.6868 27.556 59.5641 27.556C59.4413 27.556 59.3295 27.5311 59.2263 27.4813C59.1237 27.4325 59.0331 27.3619 58.9609 27.2743C58.8852 27.1766 58.8275 27.0663 58.7906 26.9484ZM64.2325 25.452H63.7912V27.9093H64.2325V25.452ZM61.4848 25.452H61.9261V26.1893H62.3339C62.5264 26.1893 62.6826 26.2142 62.8084 26.2609C62.9341 26.3081 63.0347 26.3714 63.11 26.4487C63.1853 26.5261 63.2384 26.6173 63.2692 26.7192C63.2998 26.8214 63.3167 26.9262 63.3167 27.0367C63.3167 27.1472 63.2998 27.2524 63.2636 27.3572C63.2301 27.4621 63.1714 27.553 63.0931 27.6359C63.0151 27.7189 62.9089 27.7852 62.7749 27.835C62.6408 27.8844 62.4789 27.912 62.2835 27.912H61.4822V25.452H61.4848ZM61.9261 26.6004V27.5005H62.2473C62.468 27.5005 62.6242 27.4621 62.7135 27.3844C62.8031 27.3071 62.8475 27.1969 62.8475 27.0506C62.8475 26.9013 62.8001 26.7885 62.7108 26.7109C62.6186 26.6336 62.465 26.5947 62.2529 26.5947H61.9261V26.6004Z" fill="black"/>
<path d="M67.1482 27.5556C67.042 27.691 66.9023 27.7932 66.7347 27.8622C66.5628 27.9321 66.3789 27.9677 66.1933 27.967C66.0086 27.9695 65.8251 27.9387 65.6514 27.8761C65.4954 27.8195 65.3528 27.7312 65.2327 27.6166C65.114 27.5019 65.0208 27.3636 64.959 27.2105C64.8926 27.0428 64.8594 26.8637 64.8614 26.6833C64.8614 26.5041 64.8919 26.3382 64.9563 26.181C65.0177 26.0233 65.1069 25.8883 65.2188 25.7748C65.3306 25.659 65.4643 25.5708 65.6153 25.5018C65.7744 25.4317 65.9467 25.3968 66.1206 25.3996C66.3187 25.3996 66.5032 25.4245 66.6707 25.4739C66.8383 25.5237 66.9806 25.6066 67.0977 25.7227L66.894 26.0678C66.7955 25.9785 66.6794 25.9107 66.5533 25.8687C66.4333 25.8301 66.308 25.8106 66.182 25.811C66.0705 25.811 65.9643 25.8329 65.8608 25.8744C65.7592 25.9153 65.6664 25.9754 65.5874 26.0512C65.5071 26.1297 65.4435 26.2236 65.4003 26.3273C65.3528 26.4348 65.3306 26.5536 65.3306 26.6859C65.3306 26.8213 65.3555 26.9428 65.4029 27.0476C65.4504 27.1554 65.5147 27.2467 65.5957 27.3237C65.6766 27.4013 65.7715 27.459 65.8804 27.4979C65.9895 27.5363 66.104 27.5586 66.2268 27.5586C66.3774 27.5586 66.5114 27.528 66.6316 27.47C66.7476 27.4139 66.8519 27.3362 66.9388 27.241L67.1482 27.5556ZM67.3741 25.452H69.6386V25.8883H68.7282V27.909H68.2872V25.8883H67.3771V25.452H67.3741Z" fill="black"/>
<path fill-rule="evenodd" clip-rule="evenodd" d="M70.5604 25.453H70.1191V29.0033H70.5604V27.7969C70.6497 27.8549 70.7559 27.8964 70.8786 27.9239C71.0014 27.9515 71.1298 27.9651 71.2612 27.9651C71.4566 27.9651 71.6325 27.9293 71.7917 27.8632C71.9445 27.7979 72.0829 27.7032 72.1992 27.5845C72.3136 27.4654 72.4002 27.3274 72.4616 27.1645C72.523 27.0019 72.5539 26.8277 72.5539 26.6429C72.5539 26.4604 72.526 26.2922 72.4729 26.1402C72.4229 25.9959 72.3451 25.8628 72.244 25.7483C72.1447 25.6368 72.0215 25.549 71.8836 25.4915C71.7329 25.4268 71.5702 25.3948 71.4062 25.3976C71.2333 25.3976 71.0714 25.4308 70.9178 25.4972C70.7642 25.5635 70.644 25.6432 70.5604 25.7427V25.453ZM70.8677 25.9086C70.9934 25.8422 71.1301 25.8091 71.2781 25.8091C71.4065 25.8091 71.521 25.8283 71.6245 25.8698C71.725 25.9113 71.8087 25.9693 71.8787 26.0466C71.9483 26.1239 72.0014 26.2125 72.0349 26.317C72.0711 26.4219 72.088 26.5354 72.088 26.6595C72.088 26.7922 72.0655 26.9106 72.0266 27.0211C71.99 27.1259 71.932 27.2218 71.8561 27.3028C71.7799 27.3828 71.6876 27.4458 71.5854 27.4876C71.4713 27.5354 71.3486 27.5589 71.225 27.5566C71.1052 27.5566 70.9934 27.543 70.8873 27.5155C70.771 27.4839 70.6607 27.4334 70.5608 27.3662V26.1485C70.6387 26.0549 70.7423 25.975 70.8677 25.9086ZM75.9379 25.4527H75.4966V27.91H75.9379V25.4527ZM73.1876 25.4527H73.6289V26.19H74.0363C74.2291 26.19 74.3854 26.2149 74.5111 26.2616C74.6369 26.3088 74.7374 26.3721 74.8127 26.4494C74.8881 26.5267 74.9412 26.618 74.9717 26.7198C75.0025 26.822 75.0191 26.9269 75.0191 27.0374C75.0191 27.1479 75.0025 27.253 74.9664 27.3579C74.9329 27.4627 74.8741 27.5537 74.7958 27.6366C74.7179 27.7196 74.6117 27.7859 74.4776 27.8357C74.3436 27.8851 74.1817 27.9127 73.9862 27.9127H73.185V25.4527H73.1876ZM73.6319 26.6011V27.5012H73.9531C74.1734 27.5012 74.33 27.4627 74.4192 27.3851C74.5085 27.3078 74.5533 27.1976 74.5533 27.0513C74.5533 26.902 74.5058 26.7892 74.4166 26.7116C74.3243 26.6342 74.1707 26.5954 73.9587 26.5954H73.6319V26.6011Z" fill="black"/>
<path d="M78.0549 26.6376L78.9986 27.9104H78.4571L77.7281 26.9164L76.9882 27.9104H76.4746L77.4126 26.6595L76.5303 25.4531H77.0721L77.745 26.3808L78.4289 25.4531H78.9428L78.0549 26.6376ZM39.2954 30.9474H37.9413V32.9959H37.5V30.5389H39.7363V32.9959H39.2954V30.9474ZM42.2407 30.9749H41.3698L41.3415 31.389C41.311 31.7397 41.2692 32.0214 41.2105 32.2364C41.1518 32.4521 41.0791 32.6176 40.9955 32.7334C40.9119 32.8496 40.814 32.9295 40.7022 32.9683C40.5868 33.0102 40.4649 33.0307 40.3422 33.0291L40.3087 32.6037C40.3561 32.6063 40.4119 32.5954 40.4732 32.5679C40.535 32.5403 40.5963 32.4796 40.6547 32.3887C40.7135 32.2945 40.7665 32.1621 40.814 31.9909C40.8614 31.817 40.8923 31.5907 40.9089 31.306L40.9537 30.5412H42.682V32.9985H42.2407V30.9746V30.9749Z" fill="black"/>
<path fill-rule="evenodd" clip-rule="evenodd" d="M43.8712 30.5441C43.7286 30.5826 43.6002 30.6377 43.4913 30.7067L43.6088 31.0548C43.7093 31.005 43.8099 30.9635 43.9101 30.9277C44.0106 30.8918 44.1393 30.8753 44.2926 30.8753C44.4157 30.8753 44.5133 30.8945 44.5886 30.933C44.6642 30.9692 44.72 31.0242 44.7591 31.0906C44.798 31.1569 44.8232 31.2399 44.8371 31.3361C44.851 31.433 44.8567 31.5379 44.8567 31.651C44.7664 31.5882 44.6635 31.5458 44.5551 31.5269C44.4503 31.506 44.3437 31.4949 44.2369 31.4937C44.1058 31.4937 43.9827 31.513 43.8656 31.5461C43.7481 31.5793 43.6476 31.6291 43.5667 31.6955C43.484 31.7617 43.4172 31.8456 43.3712 31.941C43.3222 32.0455 43.2974 32.1597 43.2989 32.2751C43.2989 32.515 43.3686 32.7031 43.5083 32.8355C43.6476 32.9679 43.8321 33.0343 44.061 33.0343C44.2677 33.0343 44.4323 32.9984 44.5581 32.9264C44.6835 32.8548 44.784 32.7718 44.8567 32.6779V32.9954H45.2701V31.4881C45.2701 31.1679 45.2001 30.9194 45.0578 30.7455C44.9181 30.5713 44.6696 30.4834 44.3178 30.4834C44.167 30.4835 44.0168 30.5038 43.8712 30.5438V30.5441ZM44.6112 32.5342C44.511 32.6062 44.3796 32.6394 44.2176 32.6394C44.0723 32.6394 43.9635 32.6036 43.8855 32.5342C43.8072 32.4626 43.7681 32.3687 43.7681 32.2529C43.7681 32.1839 43.782 32.1258 43.8128 32.0734C43.8434 32.0209 43.8855 31.9795 43.933 31.9463C43.9804 31.9131 44.0388 31.8882 44.1032 31.8716C44.167 31.8552 44.2327 31.8469 44.2986 31.8471C44.5163 31.8471 44.7034 31.8995 44.857 32.0097V32.3216C44.7845 32.4027 44.7019 32.4742 44.6112 32.5342Z" fill="black"/>
<path d="M45.7031 30.5381H47.9676V30.9741H47.0572V32.9951H46.6162V30.9744H45.7061V30.5381H45.7031Z" fill="black"/>
<path fill-rule="evenodd" clip-rule="evenodd" d="M50.0272 32.9715C50.1948 32.919 50.3371 32.8387 50.4599 32.7286L50.3258 32.3862C50.2449 32.4582 50.1361 32.5189 50.0047 32.5687C49.8736 32.6184 49.7256 32.643 49.5637 32.643C49.3208 32.643 49.1198 32.5796 48.9605 32.4499C48.8012 32.3201 48.715 32.138 48.6954 31.9057H50.6052C50.6245 31.8205 50.6331 31.7236 50.6331 31.6104C50.6331 31.4422 50.6022 31.2902 50.5408 31.1522C50.4837 31.0182 50.4001 30.8971 50.295 30.7962C50.1889 30.6958 50.0636 30.6179 49.9267 30.5669C49.7834 30.5113 49.6308 30.4832 49.4771 30.484C49.2704 30.484 49.0889 30.5198 48.93 30.5862C48.7796 30.6492 48.6437 30.7423 48.5305 30.8596C48.4205 30.9762 48.3359 31.1144 48.282 31.2654C48.2231 31.4262 48.1938 31.5964 48.1954 31.7677C48.1954 31.9611 48.2289 32.1377 48.2903 32.2953C48.352 32.4525 48.4439 32.5879 48.5584 32.701C48.6728 32.8142 48.8125 32.8998 48.9774 32.9605C49.1538 33.0232 49.34 33.0541 49.5272 33.0518C49.6921 33.0518 49.8597 33.0239 50.0272 32.9715ZM48.9077 31.0776C49.0444 30.9535 49.2259 30.8928 49.4549 30.8928C49.6729 30.8928 49.8431 30.9535 49.9688 31.0666C50.0942 31.1827 50.1613 31.3427 50.1726 31.5471H48.6649C48.6861 31.3663 48.7725 31.1994 48.9077 31.0776ZM50.8481 30.5394H51.4065L52.2579 31.7239L51.3478 32.9963H50.8063L51.7609 31.7236L50.8481 30.5391V30.5394ZM52.3667 30.5394H52.808V32.9963H52.3667V30.5394ZM54.3854 32.9963L53.4139 31.7236L54.3213 30.5391H53.7739L52.9168 31.7236L53.8382 32.9963H54.3854ZM56.4014 32.9715C56.5689 32.919 56.7113 32.8387 56.834 32.7286L56.7 32.3862C56.619 32.4582 56.5102 32.5189 56.3791 32.5687C56.2478 32.6184 56.0998 32.643 55.9379 32.643C55.695 32.643 55.4939 32.5796 55.3347 32.4499C55.1757 32.3201 55.0891 32.138 55.0695 31.9057H56.9794C56.9989 31.8205 57.0072 31.7236 57.0072 31.6104C57.0072 31.4422 56.9767 31.2902 56.915 31.1522C56.8578 31.0183 56.7743 30.8972 56.6695 30.7962C56.5632 30.6958 56.4379 30.6179 56.3008 30.5669C56.1575 30.5113 56.005 30.4832 55.8513 30.484C55.6449 30.484 55.4634 30.5198 55.3041 30.5862C55.1539 30.6493 55.0181 30.7423 54.905 30.8596C54.7947 30.976 54.7101 31.1142 54.6565 31.2654C54.5975 31.4262 54.5681 31.5964 54.5699 31.7677C54.5699 31.9611 54.6034 32.1377 54.6648 32.2953C54.7261 32.4525 54.8184 32.5879 54.9328 32.701C55.0473 32.8142 55.1867 32.8998 55.3516 32.9605C55.5281 33.0232 55.7144 33.0541 55.9017 33.0518C56.0714 33.0505 56.2399 33.0234 56.4014 32.9715ZM55.2819 31.0776C55.4189 30.9535 55.6004 30.8928 55.8294 30.8928C56.0444 30.8928 56.2172 30.9535 56.343 31.0666C56.4687 31.1827 56.5358 31.3427 56.5467 31.5471H55.039C55.0603 31.3663 55.1466 31.1994 55.2819 31.0776ZM58.7973 29.7139C58.5375 29.7139 58.3951 29.5702 58.3729 29.2832H57.9568C57.9568 29.3934 57.9764 29.4929 58.0126 29.5868C58.0491 29.6807 58.1022 29.7607 58.1718 29.827C58.2415 29.8934 58.3311 29.9458 58.4343 29.9869C58.5375 30.0284 58.6576 30.0477 58.7943 30.0477C58.9201 30.0477 59.0319 30.0284 59.1324 29.9869C59.2329 29.9485 59.3165 29.8934 59.3892 29.827C59.4589 29.7607 59.515 29.6807 59.5538 29.5868C59.5929 29.4929 59.6125 29.3934 59.6125 29.2832H59.1994C59.1798 29.5702 59.0428 29.7139 58.7973 29.7139ZM57.6048 30.5391V32.9963H58.0461L59.4811 31.1658V32.9963H59.9224V30.5391H59.4811L58.0461 32.3696V30.5391H57.6048Z" fill="black"/>
</svg>
