<svg width="13" height="13" viewBox="0 0 13 13" fill="none" xmlns="http://www.w3.org/2000/svg">
<circle cx="6.5" cy="6.5" r="6" fill="#567BE4" stroke="white"/>
<path fill-rule="evenodd" clip-rule="evenodd" d="M9.86419 5.42717C9.90266 5.43049 9.93832 5.44865 9.96363 5.47782C10.0174 5.53979 10.0108 5.63363 9.94881 5.68741L8.18957 7.21423L8.71563 9.48308C8.72436 9.52074 8.71807 9.56031 8.6981 9.59341C8.6557 9.66366 8.56437 9.68624 8.49412 9.64384L6.49953 8.43998L4.5055 9.6435C4.47234 9.66351 4.43268 9.66978 4.39497 9.66098C4.31506 9.64234 4.26539 9.56245 4.28403 9.48254L4.8132 7.21423L3.0513 5.6879C3.02203 5.66254 3.00381 5.62676 3.00054 5.58817C2.9936 5.5064 3.05426 5.4345 3.13602 5.42756L5.45578 5.23075L6.36283 3.09064C6.37787 3.05516 6.40611 3.02691 6.44158 3.01185C6.51711 2.97979 6.60433 3.01503 6.63639 3.09056L7.54327 5.22704L9.86419 5.42717Z" fill="white"/>
</svg>
