<svg width="50" height="50" viewBox="0 0 50 50" fill="none" xmlns="http://www.w3.org/2000/svg">
<path d="M24.6353 4.02012C24.9238 3.97748 25.2286 3.99808 25.4941 4.126C25.9198 4.31428 26.2764 4.69468 26.3628 5.16036C26.4228 5.54124 26.3091 5.94416 26.0633 6.24119C25.9952 6.32599 25.9088 6.39307 25.8329 6.4702C27.163 6.5986 28.5156 6.90905 29.646 7.64973C29.7607 7.71776 29.8567 7.81502 29.9758 7.8749C31.0611 7.99659 32.1698 8.21506 33.115 8.78806C33.5441 9.05491 33.9305 9.40705 34.1854 9.84733C34.4273 10.2603 34.5492 10.7418 34.5266 11.2199C34.5439 11.5874 34.4426 11.9515 34.279 12.2783C34.0486 12.7492 33.6838 13.1445 33.2666 13.4568C32.8697 13.751 32.4218 13.9752 31.9524 14.1276C31.8319 14.1712 31.7047 14.1946 31.5881 14.2483C32.0378 14.2948 32.4948 14.3523 32.9167 14.5219C32.9498 14.6114 32.959 14.7082 32.9772 14.8016C33.0809 15.3631 33.185 15.9246 33.2964 16.4847C31.0524 16.1977 28.7964 15.9951 26.5342 15.9519C26.0096 15.9179 25.483 15.9337 24.9574 15.9299C24.5677 15.9328 24.1765 15.9208 23.7877 15.9505C22.9505 15.9539 22.1163 16.0128 21.2806 16.0497C20.648 16.1038 20.0139 16.1441 19.3822 16.2068C18.4467 16.2983 17.5122 16.4023 16.5819 16.5388C16.5368 16.5436 16.4922 16.5427 16.4475 16.5422C16.5978 15.8772 16.7101 15.2041 16.8397 14.5353C16.9947 14.4591 17.1728 14.4347 17.3398 14.392C17.6466 14.3211 17.9605 14.2919 18.2701 14.243C17.6197 14.0911 16.9918 13.8123 16.4619 13.4013C15.9263 12.9844 15.4847 12.4143 15.3215 11.7474C15.2495 11.4911 15.2754 11.2228 15.2725 10.9598C15.3032 10.3523 15.5783 9.76685 16.0011 9.33231C16.5502 8.75979 17.2966 8.42203 18.0493 8.20356C18.6277 8.03588 19.2243 7.93862 19.8224 7.87443C19.88 7.84855 19.9261 7.80448 19.9774 7.76902C20.7344 7.2219 21.6267 6.89468 22.532 6.68819C23.0043 6.58758 23.4833 6.51524 23.9643 6.47068C23.731 6.27329 23.5366 6.01842 23.4665 5.71659C23.372 5.38937 23.4152 5.02382 23.5966 4.73397C23.8246 4.3689 24.211 4.10396 24.6353 4.02012ZM21.7218 8.5121C21.248 8.85657 20.8357 9.30979 20.6235 9.86219C20.5117 10.1257 20.4665 10.4112 20.4541 10.6953C20.455 11.3479 20.7416 11.9807 21.1894 12.4488C21.6267 12.9255 22.2018 13.2551 22.8042 13.4793C23.2601 13.6394 23.7368 13.7414 24.2192 13.775C23.7949 13.1306 23.6461 12.3535 23.5568 11.5999C23.5045 11.0585 23.4953 10.5123 23.5347 9.96902C23.5995 9.17469 23.7401 8.36214 24.1299 7.65596C23.2741 7.7374 22.4259 8.01336 21.7218 8.5121ZM25.6683 7.65644C25.9932 8.23997 26.1387 8.90256 26.2222 9.5594C26.2361 9.74481 26.2712 9.92878 26.2673 10.1156C26.2649 10.5617 26.2784 11.0087 26.2568 11.4542C26.2116 11.8188 26.1718 12.1853 26.0806 12.5413C25.975 12.9729 25.8291 13.4022 25.5776 13.7726C26.012 13.7567 26.4392 13.6557 26.8524 13.5263C27.4524 13.3294 28.0217 13.0194 28.4792 12.5815C28.8401 12.2361 29.1243 11.803 29.2567 11.3191C29.3595 10.9464 29.3705 10.5492 29.2735 10.1741C29.1334 9.58814 28.7638 9.07839 28.3073 8.69368C27.5686 8.07708 26.6187 7.74794 25.6683 7.65644ZM18.0459 9.24703C17.5726 9.46885 17.1454 9.82577 16.9203 10.3049C16.7168 10.7408 16.6621 11.2434 16.7619 11.7134C16.8589 12.1858 17.1378 12.6108 17.5126 12.9107C18.0094 13.3107 18.633 13.5206 19.257 13.6173C19.7993 13.6897 20.3528 13.7064 20.8947 13.6202C20.5486 13.4726 20.2083 13.3069 19.8963 13.0946C19.3486 12.731 18.8744 12.2222 18.656 11.5936C18.3406 10.6996 18.5624 9.66624 19.1418 8.92843C18.7626 8.96963 18.3925 9.08797 18.0459 9.24703ZM30.6555 8.92795C31.0543 9.44777 31.29 10.0979 31.2828 10.7547C31.2915 11.2794 31.1134 11.8001 30.811 12.2275C30.6559 12.457 30.4524 12.6472 30.2527 12.8374C29.8486 13.1627 29.3902 13.4147 28.9126 13.6159C29.0681 13.6667 29.2337 13.6418 29.3935 13.6681C29.7531 13.6983 30.1135 13.6662 30.4707 13.6264C31.002 13.5416 31.5353 13.4017 31.9951 13.1138C32.4434 12.8412 32.8183 12.4263 32.9786 11.9213C33.1039 11.5203 33.1183 11.0839 33.0074 10.6781C32.8961 10.2158 32.6052 9.80709 32.2217 9.52874C31.7647 9.1972 31.2151 8.99886 30.6555 8.92795Z" fill="#D5B527"/>
<path d="M25.0102 17.4342C25.1753 17.4323 25.3649 17.428 25.5406 17.4299C26.1243 17.4429 26.7094 17.4227 27.2921 17.462C28.5583 17.4826 29.8222 17.5665 31.0841 17.6642C32.8783 17.8118 34.6692 18.0211 36.4471 18.3076C37.0408 21.4538 37.5693 24.6115 38.1122 27.7669C38.4141 29.5625 38.7194 31.3577 39.0189 33.1538C39.0818 33.5217 39.1768 33.8887 39.1682 34.2653C39.1658 34.4588 39.1739 34.6538 39.1586 34.8474C39.0856 35.3883 38.9071 35.921 38.5989 36.3747C38.2672 36.8601 37.8333 37.2658 37.3668 37.6199C36.5244 38.2427 35.6584 38.8325 34.7988 39.4313C31.9927 41.3698 29.1723 43.2876 26.3499 45.203C25.9654 45.4627 25.5824 45.7242 25.1955 45.9801C25.1096 46.0385 25.0256 45.9537 24.9555 45.9106C22.952 44.5955 20.9571 43.267 18.9641 41.937C17.0931 40.6803 15.2178 39.4299 13.3674 38.144C12.9493 37.847 12.5197 37.5619 12.1434 37.2117C11.8088 36.9094 11.5059 36.5664 11.2779 36.1759C10.9693 35.6326 10.8061 35.0045 10.8344 34.3803C10.8133 33.9251 10.9266 33.482 11.0053 33.0378C11.9048 28.1602 12.8019 23.283 13.7149 18.4078C13.8195 18.3747 13.9295 18.367 14.0375 18.3498C14.6456 18.2405 15.2566 18.1529 15.8682 18.0642L15.8802 18.0614C15.8768 18.0858 15.8706 18.1347 15.8672 18.1586C15.3925 20.7179 14.9475 23.2825 14.504 25.8471C14.0312 28.5847 13.569 31.3236 13.1005 34.0621C13.0285 34.5374 13.1125 35.0563 13.4173 35.44C13.7735 35.9067 14.2679 36.2382 14.7445 36.5697C15.295 36.9516 15.8538 37.3229 16.4115 37.6946C18.3113 38.9575 20.2217 40.2051 22.1293 41.4565C23.0873 42.0798 24.0387 42.7127 24.9992 43.3321C25.0078 43.2813 25.0174 43.2306 25.0203 43.1793C25.0188 35.052 25.0198 26.9241 25.0198 18.7963C25.014 18.3469 25.0308 17.8966 25.0107 17.4476L25.0102 17.4342ZM31.3543 21.1041C31.2377 21.1779 31.2521 21.3503 31.3495 21.4347C31.1527 21.4653 30.9487 21.4998 30.7788 21.6095C30.739 21.633 30.7006 21.6651 30.6521 21.6666C30.4889 21.6872 30.3218 21.7264 30.185 21.8208C30.0694 21.8989 29.9844 22.0326 29.994 22.1758C29.9878 22.3521 30.125 22.4978 30.2714 22.5783C30.3617 22.6367 30.4726 22.6434 30.5695 22.6865C30.5719 22.7464 30.5753 22.8068 30.5796 22.8672C30.75 22.8638 30.9166 22.8188 31.0865 22.8068C31.5266 22.779 31.9721 22.79 32.4041 22.8844C32.4199 22.8054 32.3868 22.6664 32.4991 22.6559C32.6945 22.6166 32.8913 22.4997 32.97 22.309C33.0405 22.1423 32.969 21.942 32.8255 21.8385C32.6849 21.7355 32.5111 21.6872 32.3393 21.668C32.2831 21.6656 32.239 21.6282 32.1924 21.6028C32.0258 21.5041 31.8343 21.4591 31.6438 21.4375C31.6922 21.3733 31.735 21.2962 31.7124 21.2133C31.6663 21.0739 31.4681 20.9973 31.3543 21.1041ZM33.1927 22.9682C33.5613 23.3046 33.7327 23.811 33.7442 24.3001C33.7855 24.5718 33.7337 24.8429 33.7341 25.1151C33.6919 25.5266 33.6185 25.9343 33.5441 26.3411C33.4764 26.7272 33.4001 27.1138 33.3881 27.5062C33.4101 28.0519 33.6266 28.5679 33.8993 29.0341C34.1498 29.4863 34.4685 29.8974 34.7191 30.3501C34.8026 30.5154 34.9106 30.6956 34.8578 30.8881C34.8103 30.9969 34.7244 31.1306 34.5871 31.1157C34.4138 31.1363 34.2852 30.9955 34.1772 30.8819C33.9338 30.5988 33.7514 30.2706 33.5815 29.94C33.377 29.47 32.9916 29.1169 32.6378 28.7595C32.4319 28.554 32.2255 28.3499 32.0134 28.1511C31.9942 28.129 31.9596 28.1089 31.9745 28.0759C32.3518 27.7611 32.5894 27.2959 32.6647 26.8144C32.6777 26.7555 32.6614 26.686 32.7084 26.6395C32.7554 26.6798 32.7957 26.7751 32.874 26.7349C32.8898 26.5672 32.8716 26.3976 32.8817 26.229C32.8812 26.4034 32.8922 26.5792 32.8797 26.7531C32.8653 26.7555 32.8361 26.7617 32.8212 26.7646C32.8337 26.7751 32.8581 26.7972 32.8706 26.8082C32.9388 26.8111 32.9023 26.732 32.909 26.6922C32.8898 26.388 32.9345 26.0862 32.9489 25.7829C32.9969 25.5338 32.9292 25.2871 32.9009 25.0413C32.9882 25.0442 33.0756 25.0442 33.1634 25.0408C33.1351 24.5176 33.0559 23.9614 32.7305 23.5321C32.5101 23.2337 32.1521 23.0583 31.7873 23.0186C31.2895 22.9615 30.7922 23.0674 30.3122 23.1877C30.2402 23.1977 30.2383 23.2792 30.2196 23.3338C30.341 23.363 30.4778 23.3228 30.5916 23.3745C30.5023 23.4143 30.4058 23.4349 30.3161 23.4732C30.2762 23.4871 30.2671 23.5345 30.2638 23.5714C30.2614 23.8177 30.3271 24.0697 30.4822 24.2656C30.5719 24.1636 30.5964 24.0026 30.7342 23.9437C30.8014 23.8996 30.8633 23.9715 30.9041 24.0175C31.0716 24.2014 31.0798 24.4736 31.0308 24.7045C31.0097 24.8252 30.8551 24.8305 30.763 24.7979C30.6804 24.7716 30.6396 24.6949 30.6084 24.6206C30.4793 24.957 30.5398 25.3877 30.8114 25.6392C30.8282 25.5276 30.8273 25.4035 30.9041 25.312C30.9761 25.2118 31.1062 25.185 31.2223 25.1884C31.2233 25.4188 31.1258 25.6727 30.9146 25.7882C30.7006 25.8993 30.4529 25.9046 30.2249 25.9722C29.9258 26.0503 29.6666 26.24 29.4627 26.4675C29.1555 26.8029 28.9404 27.2073 28.6601 27.5642C28.4753 27.8028 28.2459 28.0356 27.9459 28.1166C27.9545 28.2201 28.0111 28.3097 28.0639 28.3964C28.1964 28.6024 28.3899 28.7638 28.6039 28.8807C28.5982 28.9708 28.5319 29.0374 28.4878 29.1112C28.3078 29.3637 28.1244 29.6185 27.8887 29.8226C27.8316 29.8734 27.7649 29.917 27.6857 29.918C27.6036 29.8174 27.5355 29.6842 27.4059 29.6406C27.2331 29.6238 27.0694 29.7033 26.9038 29.7417C26.8788 29.792 26.8572 29.8432 26.838 29.8964C26.8985 29.9185 26.9662 29.9223 27.0233 29.9539C27.0286 30.044 27.0209 30.1341 27.0156 30.2246C27.1529 30.2591 27.2969 30.2648 27.4318 30.3123C27.4323 30.3314 27.4337 30.3693 27.4347 30.388C27.3367 30.3746 27.2407 30.3516 27.1452 30.329C27.0795 30.342 26.9998 30.3439 26.9628 30.4095C26.851 30.5763 26.731 30.7674 26.7564 30.9768C26.8044 30.9581 26.8424 30.9222 26.8856 30.8953C26.9691 30.891 26.9883 30.9916 26.9955 31.0553C27.0286 31.0716 27.0727 31.1224 27.1068 31.0769C27.2182 30.9849 27.3142 30.8757 27.4227 30.7808C27.4692 30.7569 27.487 30.8177 27.4908 30.8522C27.402 30.9567 27.3012 31.0501 27.2091 31.1512C27.1899 31.1737 27.1639 31.1976 27.1692 31.2312C27.1697 31.4286 27.1126 31.6274 27.1663 31.8224C27.2412 31.7687 27.294 31.6777 27.3795 31.6442C27.4481 31.6681 27.5057 31.7213 27.5815 31.7318C27.8009 31.6758 27.8897 31.4415 28.0006 31.2685C28.0995 31.339 28.2171 31.3701 28.3356 31.3864C28.3462 31.4463 28.3539 31.5067 28.3644 31.567C28.3721 31.568 28.387 31.5709 28.3947 31.5718C28.4983 31.4669 28.5655 31.3227 28.5631 31.1737C28.5622 30.9883 28.5339 30.8019 28.5574 30.6165C28.5843 30.4584 28.6875 30.33 28.7931 30.2155C28.8569 30.2423 28.9174 30.2773 28.9836 30.2998C29.1257 30.3362 29.2769 30.3123 29.4094 30.2524C29.5111 30.2203 29.5788 30.1168 29.6114 30.0234C29.4646 29.9721 29.3019 29.8332 29.3451 29.6607C29.37 29.5457 29.4646 29.4504 29.5807 29.4255C29.7703 29.3843 29.9734 29.4063 30.151 29.4844C30.7078 29.722 31.0658 30.2308 31.4786 30.6476C31.5118 30.8599 31.4556 31.0774 31.4585 31.292C31.4474 31.7064 31.4306 32.1324 31.554 32.5329C31.6361 32.8189 31.8473 33.0565 31.8828 33.3574C31.9078 33.4973 31.8785 33.6396 31.89 33.7804C31.9793 33.7493 32.0801 33.733 32.1506 33.665C32.2135 33.6084 32.2529 33.5327 32.2927 33.4594C32.3767 33.4638 32.4607 33.4652 32.5442 33.48C32.5317 33.5212 32.5183 33.562 32.4977 33.5998C32.3383 33.8906 32.1794 34.1853 31.9692 34.4435C31.8617 34.5786 31.7393 34.7084 31.5833 34.787C31.4489 34.8574 31.2766 34.8632 31.1436 34.7875C30.9804 34.7041 30.8417 34.5523 30.6473 34.5489C30.5359 34.5427 30.4778 34.6524 30.4034 34.7147C30.3391 34.7841 30.2378 34.7698 30.1548 34.7937C30.0828 34.8325 30.03 34.9188 30.0521 35.0016C30.1193 35.0031 30.1889 35.0021 30.2522 35.0294C30.2638 35.1018 30.2729 35.177 30.3022 35.246C30.3622 35.2374 30.3881 35.1588 30.4327 35.1214C30.4999 35.0587 30.5426 34.9537 30.641 34.937C30.6252 34.9729 30.6036 35.0074 30.5767 35.0371C30.4548 35.1727 30.3718 35.3361 30.2782 35.4913C30.2086 35.5919 30.2383 35.7198 30.2474 35.8334C30.2575 35.876 30.2431 35.9383 30.2974 35.9565C30.3314 35.9009 30.3612 35.8429 30.3982 35.7893C30.5206 35.7351 30.533 35.898 30.6233 35.9368C30.7073 35.738 30.701 35.5167 30.7615 35.3111C30.7759 35.3035 30.8057 35.2877 30.8206 35.28C30.8196 35.3164 30.8162 35.3533 30.8095 35.3902C30.7198 35.6743 30.678 35.9828 30.7558 36.2751C30.7606 36.3187 30.7951 36.3469 30.8244 36.3766C30.8628 36.3038 30.8719 36.2051 30.955 36.1668C31.015 36.1227 31.0932 36.1357 31.1633 36.1309C31.1585 36.0667 31.206 35.9819 31.1556 35.9311L31.1839 35.9354C31.1839 35.8444 31.1767 35.7529 31.1863 35.6623C31.2022 35.5957 31.2439 35.5392 31.2828 35.4841C31.2804 35.4999 31.2756 35.531 31.2737 35.5469C31.183 35.8362 31.2094 36.1515 31.2876 36.4413C31.3265 36.4672 31.3663 36.4931 31.4057 36.5194C31.4297 36.4289 31.4537 36.3393 31.4738 36.2482C31.6255 36.2171 31.7786 36.1984 31.9313 36.1716C31.9889 36.1682 32.0234 36.117 32.0566 36.0767C32.1991 35.8904 32.2303 35.6508 32.3258 35.4419C32.3762 35.3241 32.4468 35.1947 32.5735 35.1478C32.6781 35.1099 32.7482 35.2038 32.8116 35.2685C32.8783 35.1051 32.8802 34.9274 32.9133 34.7564C32.9517 34.4574 33.1389 34.2107 33.2897 33.9591C33.4476 33.7153 33.57 33.4436 33.6045 33.1533C33.6185 32.9334 33.6237 32.7015 33.5397 32.4936C33.4577 32.6091 33.3943 32.7365 33.3084 32.8496C33.0511 32.8606 32.874 32.6124 32.8308 32.3824C32.7684 31.9225 32.8212 31.4195 33.1044 31.0367C33.162 30.9643 33.2388 30.8728 33.3425 30.8915C33.5186 31.3696 33.9919 31.7237 34.4993 31.7682C34.794 31.7984 35.1065 31.6734 35.2764 31.4262C35.3719 31.281 35.4463 31.1152 35.4535 30.9394C35.4986 30.7569 35.4324 30.571 35.3556 30.4071C35.2509 30.1757 35.1017 29.9678 34.9793 29.7465C35.0589 29.3685 35.2418 29.0206 35.4357 28.6891C35.1348 28.795 34.901 29.0432 34.7431 29.3134C34.7537 29.1442 34.8261 28.9852 34.8837 28.8276C34.9639 28.6081 35.0911 28.4108 35.2044 28.2081C34.9193 28.2953 34.7196 28.5358 34.5362 28.7571C34.6365 28.3681 34.7935 27.9935 35.0201 27.6605C34.9845 27.6672 34.9476 27.6696 34.9154 27.6868C34.6284 27.8368 34.4095 28.0883 34.2593 28.3715C34.0577 27.821 34.1301 27.2245 34.2021 26.6573C34.3015 25.8629 34.446 25.0739 34.6553 24.3011C34.7503 23.9609 34.9274 23.6256 35.2313 23.4287C34.758 23.351 34.3202 23.823 34.3649 24.2858C34.3605 24.2862 34.3519 24.2877 34.3476 24.2882C34.3452 24.1238 34.2929 23.9652 34.2333 23.8143C34.0615 23.3817 33.6535 23.0463 33.1927 22.9682ZM29.5827 24.4041C29.5289 24.5488 29.5246 24.7304 29.6335 24.8511C29.7367 24.957 29.9033 24.9527 30.0334 24.9047C30.2546 24.8252 30.401 24.6297 30.5945 24.5061C30.6895 24.4424 30.8004 24.4132 30.9122 24.394C30.8033 24.3432 30.6708 24.3341 30.5585 24.3787C30.367 24.4525 30.1788 24.5411 29.9753 24.578C29.8922 24.5866 29.7881 24.5962 29.7329 24.5191C29.6916 24.3955 29.7401 24.2699 29.7809 24.154C29.6734 24.1928 29.6206 24.304 29.5827 24.4041ZM28.0155 24.6551C28.0241 24.8118 27.9046 24.9359 27.9031 25.0892C27.919 25.2166 27.9339 25.3446 27.9281 25.4734C27.8023 25.3537 27.8599 25.1467 27.7385 25.0221C27.6051 24.887 27.4318 24.7859 27.2465 24.7414C27.2806 24.9134 27.2177 25.1084 27.3233 25.2626C27.3862 25.3565 27.4303 25.4638 27.5052 25.5501C27.5076 25.5942 27.51 25.6392 27.5124 25.6842C27.498 25.6847 27.4683 25.6857 27.4534 25.6861C27.366 25.5841 27.2835 25.4773 27.1923 25.379C27.0291 25.3062 26.8476 25.3786 26.6888 25.4294C26.766 25.5156 26.8486 25.5985 26.9086 25.6986C27.0761 25.9496 27.2523 26.2275 27.2283 26.5428C27.2355 26.7459 27.1059 26.9208 26.9561 27.0444C27.0315 27.1527 27.1764 27.1493 27.294 27.1598C27.3526 27.1584 27.4217 27.1689 27.4721 27.1325C27.5499 27.042 27.5955 26.928 27.6766 26.8403C27.6871 26.8412 27.7083 26.8436 27.7188 26.8446C27.9459 27.1119 28.1503 27.3979 28.3735 27.6686C28.5699 27.5048 28.6884 27.2719 28.8305 27.064C28.8564 27.019 28.8972 26.9783 28.9054 26.9256C28.8055 26.5222 28.3404 26.342 28.2492 25.9343C28.1916 25.5946 28.339 25.2516 28.2569 24.9138C28.2113 24.8046 28.1316 24.6939 28.0155 24.6551ZM30.3732 30.0378C30.1591 30.1106 30.0305 30.3104 29.8884 30.4723C29.7343 30.662 29.5121 30.8273 29.2553 30.8153C29.2707 30.9586 29.3143 31.1061 29.4103 31.2173C29.479 31.2959 29.5788 31.3351 29.6796 31.3553C29.6902 31.4108 29.6978 31.4664 29.7017 31.5234C29.7223 31.9273 29.8822 32.3259 30.1615 32.6215C30.1855 32.6574 30.2585 32.7077 30.2138 32.7528C30.0295 32.7801 29.8423 32.7748 29.6566 32.7763C29.5097 32.7753 29.3532 32.783 29.2203 32.7092C28.9807 32.5885 28.866 32.3297 28.6711 32.1587C28.5315 32.0389 28.3438 31.9834 28.1614 32.0107C28.1916 32.0638 28.2271 32.1141 28.2497 32.1716C28.2651 32.2521 28.2175 32.3249 28.1988 32.4011C28.3126 32.4351 28.4263 32.4696 28.5425 32.4989C28.542 32.5314 28.542 32.5645 28.5425 32.598C28.3702 32.5583 28.1758 32.5396 28.015 32.6287C27.9079 32.6828 27.8422 32.7897 27.8062 32.9003C27.871 32.9032 27.9353 32.9061 28.0006 32.909C28.0553 33.0038 28.0927 33.1068 28.1076 33.2156C28.2276 33.0953 28.3255 32.955 28.4518 32.8414C28.4475 32.9837 28.3687 33.1068 28.2881 33.2189C28.1772 33.3708 28.0673 33.5447 28.0836 33.7416C28.1628 33.7234 28.2238 33.6683 28.2934 33.63C28.3491 33.6952 28.4086 33.757 28.4695 33.8168C28.5631 33.6966 28.5718 33.5385 28.6188 33.3981C28.6361 33.3981 28.6721 33.3981 28.6894 33.3981C28.6735 33.5562 28.6092 33.7047 28.5886 33.8624C28.5502 34.019 28.5516 34.2183 28.6937 34.3242C28.7177 34.248 28.7407 34.1723 28.7657 34.0971C28.8343 34.088 28.9049 34.0904 28.9707 34.1163C29.1324 34.1685 29.2774 34.0344 29.3599 33.9098C29.4363 33.79 29.5587 33.6947 29.706 33.6894C29.7468 33.7402 29.7948 33.7886 29.8159 33.8523C29.827 33.9179 29.8337 33.985 29.8519 34.0497C30.0074 33.9917 30.09 33.8398 30.222 33.7507C30.4514 33.63 30.7183 33.6305 30.9708 33.6219C31.2055 33.6094 31.3999 33.4527 31.5362 33.2721C31.2809 33.0321 31.0673 32.747 30.9036 32.4375C30.7913 32.2076 30.689 31.9503 30.7351 31.6901C30.7726 31.5809 30.8047 31.4425 30.9247 31.396C31.062 31.3227 31.2118 31.4113 31.3289 31.4846C31.3462 31.328 31.3644 31.1703 31.3606 31.0127C31.2698 30.8498 31.073 30.7708 30.9938 30.5978C30.9502 30.501 30.9962 30.3932 30.9689 30.295C30.9593 30.3837 30.9622 30.4733 30.9545 30.5624C30.9463 30.4627 30.9521 30.3631 30.9689 30.2648C30.8033 30.1317 30.5969 29.9894 30.3732 30.0378Z" fill="#D5B527"/>
<path d="M30.843 21.9252C30.9601 21.7686 31.1578 21.6799 31.3518 21.6804C31.3081 21.8414 31.2615 22.0052 31.2812 22.1744C31.2802 22.2956 31.3518 22.4048 31.3422 22.5265C31.1718 22.5083 30.998 22.4479 30.8809 22.3176C30.7801 22.216 30.7738 22.045 30.843 21.9252Z" fill="#D5B527"/>
<path d="M31.6162 21.6853C31.7982 21.6719 31.9849 21.7519 32.1068 21.886C32.1937 21.9742 32.2071 22.115 32.1644 22.2267C32.0559 22.4322 31.8082 22.5165 31.5898 22.5371C31.742 22.2818 31.7463 21.9502 31.6162 21.6853Z" fill="#D5B527"/>
<path d="M30.2267 22.0785C30.2723 21.941 30.4273 21.8773 30.5598 21.8582C30.5257 21.9497 30.4715 22.0402 30.4835 22.1418C30.4931 22.2759 30.5948 22.3804 30.7043 22.4484C30.7028 22.4676 30.6999 22.5059 30.6985 22.5246C30.5545 22.516 30.3937 22.4997 30.2895 22.3876C30.2022 22.3104 30.206 22.183 30.2267 22.0785Z" fill="#D5B527"/>
<path d="M32.4285 21.8578C32.5643 21.875 32.7131 21.9445 32.7611 22.0829C32.7875 22.1912 32.776 22.3239 32.6805 22.3967C32.5418 22.528 32.3383 22.5184 32.1611 22.5122C32.284 22.4394 32.429 22.3723 32.4827 22.2286C32.5365 22.1026 32.4794 21.9737 32.4285 21.8578Z" fill="#D5B527"/>
<path d="M19.4205 22.0452C19.7339 22.0485 20.0474 22.0461 20.3608 22.0461C20.3666 22.325 20.3584 22.6038 20.3651 22.8831C20.6061 22.8869 20.8471 22.8783 21.088 22.8869C21.1039 22.8553 21.1115 22.8218 21.1106 22.7868C21.1101 22.5578 21.1077 22.3288 21.1125 22.0998C21.4096 22.0988 21.7062 22.1012 22.0034 22.0983C22.0091 22.772 22.0077 23.446 22.0043 24.1196C20.5773 24.1172 19.1507 24.1187 17.7242 24.1187C17.7237 23.4456 17.7208 22.772 17.7256 22.0988C18.0227 22.0998 18.3198 22.1012 18.617 22.0979C18.6227 22.2684 18.6194 22.439 18.6198 22.6095C18.6218 22.702 18.6093 22.7978 18.64 22.8874C18.8906 22.8783 19.1416 22.886 19.3922 22.8826C19.4416 22.6067 19.3984 22.324 19.4205 22.0452Z" fill="#D5B527"/>
<path d="M31.1003 23.2897C31.2914 23.2892 31.4853 23.2691 31.6739 23.3064C31.7018 23.3194 31.7613 23.3136 31.7522 23.3615C31.5952 23.4387 31.4258 23.4847 31.2654 23.5537C31.2122 23.5771 31.1565 23.5929 31.0989 23.6001C31.1013 23.4962 31.1013 23.3927 31.1003 23.2897Z" fill="#D5B527"/>
<path d="M18.4289 24.4597C19.386 24.4611 20.3436 24.4626 21.3007 24.4587C21.355 24.6935 21.3602 24.9369 21.4006 25.175C21.678 27.4109 21.9564 29.6473 22.2358 31.8833C22.2502 32.0715 22.2962 32.2574 22.2962 32.4472C20.6762 32.4424 19.0558 32.4467 17.4358 32.4448C17.4602 32.0735 17.5318 31.707 17.5649 31.3366C17.851 29.059 18.1318 26.78 18.4178 24.5023C18.4198 24.4918 18.426 24.4702 18.4289 24.4597ZM19.1815 26.7823C19.1734 26.9381 19.1575 27.1009 19.1998 27.2538C19.6438 27.2538 20.0882 27.2504 20.5322 27.2552C20.5701 27.0995 20.5514 26.9366 20.5505 26.7785C20.5418 26.7708 20.5245 26.7555 20.5159 26.7479C20.0805 26.7431 19.6447 26.7426 19.2094 26.7483C19.2026 26.757 19.1882 26.7737 19.1815 26.7823ZM19.1974 28.3413C19.2022 28.5013 19.1978 28.6618 19.2017 28.8218C19.6505 28.8214 20.0993 28.8223 20.5476 28.8214C20.562 28.6618 20.5485 28.5023 20.5572 28.3428C20.5188 28.3231 20.4761 28.3145 20.4333 28.3174C20.0637 28.3183 19.6946 28.3183 19.325 28.3174C19.2809 28.314 19.2377 28.3245 19.1974 28.3413ZM19.1734 29.9171C19.1849 30.0776 19.1522 30.2428 19.1993 30.3995C19.6433 30.4005 20.0868 30.3981 20.5308 30.4009C20.5764 30.2438 20.5418 30.079 20.5553 29.9185C20.5169 29.8979 20.4751 29.8874 20.4319 29.8912C20.0623 29.8912 19.6927 29.8917 19.3226 29.8912C19.2718 29.8897 19.2228 29.9046 19.1734 29.9171Z" fill="#D5B527"/>
<path d="M16.8808 32.8155C18.869 32.8165 20.8571 32.8131 22.8453 32.8174C22.8472 33.4906 22.8453 34.1637 22.8463 34.8373C22.3163 34.8416 21.7864 34.8368 21.256 34.8397C21.2459 34.6639 21.2704 34.4861 21.232 34.3132C20.32 34.3161 19.4085 34.3122 18.4965 34.3151C18.4922 34.489 18.4946 34.6629 18.495 34.8373C17.957 34.8416 17.4189 34.8378 16.8803 34.8392C16.8813 34.1642 16.8808 33.4901 16.8808 32.8155Z" fill="#D5B527"/>
</svg>
