<svg width="108" height="32" viewBox="0 0 108 32" fill="none" xmlns="http://www.w3.org/2000/svg">
<rect x="0.5" y="0.5" width="107" height="31" rx="5.5" fill="white"/>
<path d="M34.2945 21.7121H30.4973L29.5854 24.3973H27.9771L31.5737 14.4629H33.2447L36.8413 24.3973H35.2056L34.2945 21.7121ZM30.8906 20.4731H33.9004L32.4167 16.1153H32.3751L30.8906 20.4731Z" fill="black"/>
<path d="M44.6086 20.7761C44.6086 23.0269 43.4006 24.473 41.5776 24.473C41.1158 24.4971 40.6566 24.391 40.2524 24.1669C39.8483 23.9428 39.5156 23.6097 39.2924 23.2058H39.2579V26.7933H37.7671V17.1543H39.2101V18.359H39.2375C39.471 17.957 39.8093 17.6256 40.2165 17.4002C40.6237 17.1747 41.0846 17.0635 41.5502 17.0785C43.3936 17.0785 44.6086 18.5316 44.6086 20.7761ZM43.0763 20.7761C43.0763 19.3097 42.3164 18.3457 41.1569 18.3457C40.0178 18.3457 39.2517 19.3301 39.2517 20.7761C39.2517 22.2355 40.0178 23.2129 41.1569 23.2129C42.3164 23.2129 43.0762 22.2558 43.0762 20.7761H43.0763Z" fill="black"/>
<path d="M52.6032 20.7761C52.6032 23.0269 51.3947 24.473 49.5718 24.473C49.11 24.4971 48.6507 24.391 48.2465 24.1669C47.8424 23.9428 47.5097 23.6097 47.2866 23.2058H47.2521V26.7933H45.7612V17.1543H47.2043V18.359H47.2317C47.4651 17.957 47.8034 17.6256 48.2106 17.4002C48.6179 17.1747 49.0788 17.0635 49.5443 17.0785C51.3877 17.0785 52.6032 18.5316 52.6032 20.7761ZM51.0704 20.7761C51.0704 19.3097 50.3105 18.3457 49.1511 18.3457C48.012 18.3457 47.2458 19.3301 47.2458 20.7761C47.2458 22.2355 48.012 23.2129 49.1511 23.2129C50.3105 23.2129 51.0704 22.2558 51.0704 20.7761Z" fill="black"/>
<path d="M57.8855 21.6289C57.996 22.6141 58.9556 23.2609 60.2671 23.2609C61.5236 23.2609 62.4277 22.6141 62.4277 21.7258C62.4277 20.9547 61.8824 20.493 60.5914 20.1766L59.3003 19.8664C57.4711 19.4258 56.6219 18.5727 56.6219 17.1883C56.6219 15.4742 58.1197 14.2969 60.2459 14.2969C62.3517 14.2969 63.7948 15.4742 63.8433 17.1883H62.3384C62.2483 16.1969 61.4265 15.5984 60.2255 15.5984C59.0246 15.5984 58.2028 16.2039 58.2028 17.0852C58.2028 17.7875 58.7277 18.2008 60.0117 18.5172L61.1092 18.7859C63.1531 19.2679 64.0016 20.0867 64.0016 21.5398C64.0016 23.3984 62.5178 24.5625 60.1566 24.5625C57.9473 24.5625 56.4557 23.4258 56.3594 21.6289L57.8855 21.6289Z" fill="black"/>
<path d="M67.2209 15.4395V17.1535H68.6021V18.3309H67.2209V22.3238C67.2209 22.9441 67.4974 23.2332 68.1046 23.2332C68.2686 23.2304 68.4322 23.2189 68.595 23.1988V24.3691C68.322 24.42 68.0446 24.443 67.7669 24.4379C66.2965 24.4379 65.723 23.8871 65.723 22.4824V18.3309H64.667V17.1535H65.723V15.4395H67.2209Z" fill="black"/>
<path d="M69.4009 20.7754C69.4009 18.4965 70.7468 17.0645 72.8455 17.0645C74.9513 17.0645 76.291 18.4965 76.291 20.7754C76.291 23.0605 74.9584 24.4863 72.8455 24.4863C70.7334 24.4863 69.4009 23.0605 69.4009 20.7754ZM74.7719 20.7754C74.7719 19.2121 74.0535 18.2895 72.8455 18.2895C71.6375 18.2895 70.9191 19.2191 70.9191 20.7754C70.9191 22.3449 71.6375 23.2605 72.8455 23.2605C74.0535 23.2605 74.7719 22.3449 74.7719 20.7754H74.7719Z" fill="black"/>
<path d="M77.52 17.1542H78.9419V18.387H78.9764C79.0726 18.002 79.2988 17.6617 79.6169 17.4234C79.9351 17.1851 80.3258 17.0633 80.7234 17.0784C80.8952 17.0778 81.0665 17.0964 81.2342 17.1339V18.5245C81.0173 18.4584 80.791 18.4281 80.5643 18.4347C80.3478 18.4259 80.1319 18.464 79.9314 18.5463C79.731 18.6286 79.5508 18.7532 79.4032 18.9115C79.2556 19.0698 79.1441 19.2581 79.0764 19.4634C79.0087 19.6688 78.9863 19.8863 79.0109 20.1011V24.3972H77.52L77.52 17.1542Z" fill="black"/>
<path d="M88.1078 22.2691C87.9073 23.584 86.6232 24.4863 84.9804 24.4863C82.8676 24.4863 81.5562 23.0746 81.5562 20.8098C81.5562 18.5379 82.8746 17.0645 84.9178 17.0645C86.9272 17.0645 88.1908 18.441 88.1908 20.6371V21.1465H83.0611V21.2363C83.0374 21.5029 83.0709 21.7714 83.1593 22.0241C83.2476 22.2768 83.3889 22.5078 83.5737 22.7018C83.7585 22.8959 83.9826 23.0485 84.2311 23.1495C84.4796 23.2506 84.7467 23.2977 85.0149 23.2879C85.3672 23.3208 85.7207 23.2394 86.0229 23.0559C86.3252 22.8723 86.5599 22.5964 86.6922 22.2691L88.1078 22.2691ZM83.0681 20.1074H86.6992C86.7126 19.8677 86.6762 19.6279 86.5922 19.4029C86.5082 19.178 86.3785 18.9727 86.2113 18.8001C86.044 18.6275 85.8427 18.4912 85.6201 18.3999C85.3975 18.3085 85.1584 18.264 84.9178 18.2691C84.675 18.2677 84.4343 18.3142 84.2097 18.406C83.985 18.4978 83.7808 18.6331 83.6089 18.804C83.4369 18.9749 83.3006 19.178 83.2078 19.4018C83.115 19.6255 83.0675 19.8653 83.0681 20.1074V20.1074Z" fill="black"/>
<path d="M30.7041 6.98491C31.0166 6.96254 31.3303 7.00963 31.6224 7.12278C31.9145 7.23592 32.1777 7.41231 32.3932 7.63921C32.6087 7.86611 32.7709 8.13787 32.8683 8.43488C32.9657 8.7319 32.9958 9.04677 32.9564 9.35678C32.9564 10.8818 32.1299 11.7584 30.7041 11.7584H28.9751V6.98491H30.7041ZM29.7185 11.0833H30.621C30.8444 11.0966 31.0679 11.0601 31.2753 10.9764C31.4827 10.8927 31.6688 10.764 31.82 10.5995C31.9712 10.4351 32.0837 10.2391 32.1494 10.0258C32.2151 9.81246 32.2322 9.58725 32.1996 9.36651C32.2299 9.14664 32.211 8.92282 32.1443 8.71109C32.0776 8.49936 31.9648 8.30496 31.8139 8.14182C31.6631 7.97867 31.4779 7.85083 31.2716 7.76744C31.0654 7.68405 30.8432 7.64718 30.621 7.65948H29.7185V11.0833Z" fill="black"/>
<path d="M33.7961 9.95602C33.7734 9.71928 33.8006 9.48043 33.8759 9.25477C33.9512 9.02912 34.0729 8.82164 34.2333 8.64566C34.3937 8.46967 34.5892 8.32906 34.8073 8.23284C35.0254 8.13662 35.2612 8.08691 35.4997 8.08691C35.7381 8.08691 35.974 8.13662 36.1921 8.23284C36.4101 8.32906 36.6057 8.46967 36.766 8.64566C36.9264 8.82164 37.0482 9.02912 37.1235 9.25477C37.1987 9.48043 37.2259 9.71928 37.2032 9.95602C37.2263 10.193 37.1995 10.4322 37.1244 10.6582C37.0493 10.8842 36.9277 11.0921 36.7672 11.2684C36.6068 11.4447 36.4111 11.5856 36.1928 11.6821C35.9745 11.7785 35.7384 11.8283 35.4997 11.8283C35.2609 11.8283 35.0248 11.7785 34.8065 11.6821C34.5882 11.5856 34.3925 11.4447 34.2321 11.2684C34.0717 11.0921 33.95 10.8842 33.8749 10.6582C33.7998 10.4322 33.773 10.193 33.7961 9.95602ZM36.4699 9.95602C36.4699 9.17516 36.1182 8.71852 35.5008 8.71852C34.8812 8.71852 34.5326 9.17516 34.5326 9.95602C34.5326 10.7431 34.8812 11.1963 35.5008 11.1963C36.1182 11.1962 36.4699 10.74 36.4699 9.95602H36.4699Z" fill="black"/>
<path d="M41.732 11.7586H40.9924L40.2458 9.10547H40.1894L39.446 11.7586H38.7135L37.7178 8.15625H38.4409L39.088 10.9051H39.1412L39.8839 8.15625H40.5678L41.3105 10.9051H41.3669L42.0109 8.15625H42.7238L41.732 11.7586Z" fill="black"/>
<path d="M43.5615 8.15609H44.2478V8.72835H44.3011C44.3914 8.52282 44.5439 8.35052 44.7371 8.23548C44.9303 8.12043 45.1547 8.06837 45.379 8.08655C45.5548 8.07338 45.7313 8.0998 45.8954 8.16388C46.0595 8.22796 46.2071 8.32804 46.3272 8.45672C46.4473 8.58539 46.5368 8.73936 46.5891 8.90722C46.6414 9.07507 46.6552 9.25251 46.6294 9.42639V11.7584H45.9165V9.60492C45.9165 9.02602 45.6642 8.73812 45.137 8.73812C45.0176 8.73258 44.8985 8.75283 44.7877 8.7975C44.677 8.84216 44.5772 8.91018 44.4953 8.99689C44.4134 9.0836 44.3512 9.18694 44.3131 9.29985C44.275 9.41275 44.2618 9.53254 44.2744 9.65101V11.7584H43.5615L43.5615 8.15609Z" fill="black"/>
<path d="M47.7651 6.75H48.478V11.7586H47.7651V6.75Z" fill="black"/>
<path d="M49.469 9.95608C49.4463 9.71933 49.4735 9.48047 49.5488 9.2548C49.6241 9.02914 49.7458 8.82166 49.9062 8.64567C50.0666 8.46968 50.2622 8.32906 50.4803 8.23284C50.6984 8.13662 50.9342 8.08691 51.1727 8.08691C51.4112 8.08691 51.647 8.13662 51.8651 8.23284C52.0832 8.32906 52.2788 8.46968 52.4392 8.64567C52.5996 8.82166 52.7213 9.02914 52.7966 9.2548C52.8719 9.48047 52.8991 9.71933 52.8764 9.95608C52.8995 10.1931 52.8727 10.4323 52.7976 10.6583C52.7225 10.8843 52.6008 11.0921 52.4403 11.2685C52.2799 11.4448 52.0842 11.5857 51.8659 11.6821C51.6476 11.7785 51.4115 11.8284 51.1727 11.8284C50.9339 11.8284 50.6978 11.7785 50.4795 11.6821C50.2612 11.5857 50.0655 11.4448 49.9051 11.2685C49.7446 11.0921 49.6229 10.8843 49.5478 10.6583C49.4727 10.4323 49.4459 10.1931 49.469 9.95608ZM52.1427 9.95608C52.1427 9.17523 51.791 8.71859 51.1737 8.71859C50.554 8.71859 50.2054 9.17523 50.2054 9.95609C50.2054 10.7432 50.554 11.1963 51.1737 11.1963C51.791 11.1963 52.1428 10.7401 52.1428 9.95608H52.1427Z" fill="black"/>
<path d="M53.627 10.74C53.627 10.0916 54.1111 9.71777 54.9705 9.66464L55.949 9.60839V9.29746C55.949 8.91699 55.6967 8.70215 55.2094 8.70215C54.8115 8.70215 54.5357 8.84785 54.4566 9.10254H53.7664C53.8393 8.48379 54.4229 8.08691 55.2423 8.08691C56.148 8.08691 56.6587 8.53651 56.6587 9.29746V11.7588H55.9725V11.2525H55.9161C55.8016 11.4341 55.6408 11.5822 55.4502 11.6815C55.2596 11.7809 55.0459 11.828 54.8311 11.8181C54.6794 11.8339 54.5261 11.8177 54.3811 11.7708C54.2361 11.7238 54.1026 11.6471 53.9891 11.5455C53.8757 11.4439 53.7849 11.3198 53.7225 11.181C53.6601 11.0423 53.6276 10.8921 53.627 10.74ZM55.949 10.4322V10.131L55.0669 10.1873C54.5694 10.2205 54.3438 10.3892 54.3438 10.7068C54.3438 11.031 54.6258 11.2197 55.0136 11.2197C55.1272 11.2312 55.242 11.2197 55.3511 11.1861C55.4602 11.1524 55.5614 11.0972 55.6487 11.0237C55.736 10.9502 55.8075 10.86 55.8591 10.7584C55.9107 10.6568 55.9413 10.5459 55.949 10.4322Z" fill="black"/>
<path d="M57.5957 9.95587C57.5957 8.81759 58.1825 8.0965 59.0951 8.0965C59.3209 8.08612 59.545 8.14005 59.7411 8.25196C59.9373 8.36388 60.0974 8.52916 60.2029 8.7285H60.2562V6.75H60.9691V11.7586H60.2859V11.1894H60.2295C60.1159 11.3874 59.9502 11.5507 59.7502 11.6615C59.5503 11.7722 59.3237 11.8264 59.0952 11.818C58.1762 11.818 57.5957 11.0969 57.5957 9.95587ZM58.3321 9.95587C58.3321 10.7199 58.6933 11.1797 59.2973 11.1797C59.8982 11.1797 60.2695 10.7133 60.2695 9.959C60.2695 9.20822 59.8943 8.73517 59.2973 8.73517C58.6972 8.73517 58.3321 9.19806 58.3321 9.95587H58.3321Z" fill="black"/>
<path d="M63.9187 9.95602C63.896 9.71928 63.9231 9.48043 63.9984 9.25477C64.0737 9.02912 64.1954 8.82164 64.3558 8.64566C64.5162 8.46967 64.7117 8.32906 64.9298 8.23284C65.1479 8.13662 65.3838 8.08691 65.6222 8.08691C65.8607 8.08691 66.0965 8.13662 66.3146 8.23284C66.5327 8.32906 66.7282 8.46967 66.8886 8.64566C67.049 8.82164 67.1707 9.02912 67.246 9.25477C67.3213 9.48043 67.3485 9.71928 67.3257 9.95602C67.3489 10.193 67.3221 10.4322 67.247 10.6582C67.1719 10.8842 67.0502 11.0921 66.8898 11.2684C66.7294 11.4447 66.5337 11.5856 66.3154 11.6821C66.0971 11.7785 65.861 11.8283 65.6222 11.8283C65.3835 11.8283 65.1474 11.7785 64.9291 11.6821C64.7107 11.5856 64.5151 11.4447 64.3547 11.2684C64.1942 11.0921 64.0726 10.8842 63.9975 10.6582C63.9224 10.4322 63.8956 10.193 63.9187 9.95602ZM66.5925 9.95602C66.5925 9.17516 66.2407 8.71852 65.6234 8.71852C65.0037 8.71852 64.6551 9.17516 64.6551 9.95602C64.6551 10.7431 65.0037 11.1963 65.6234 11.1963C66.2407 11.1962 66.5925 10.74 66.5925 9.95602Z" fill="black"/>
<path d="M68.2822 8.15609H68.9685V8.72835H69.0218C69.1121 8.52282 69.2646 8.35052 69.4578 8.23548C69.651 8.12043 69.8754 8.06837 70.0997 8.08655C70.2755 8.07338 70.452 8.0998 70.6161 8.16388C70.7802 8.22796 70.9278 8.32804 71.0479 8.45672C71.168 8.58539 71.2575 8.73936 71.3098 8.90722C71.3621 9.07507 71.3759 9.25251 71.3501 9.42639V11.7584H70.6372V9.60492C70.6372 9.02602 70.3849 8.73812 69.8577 8.73812C69.7383 8.73258 69.6192 8.75283 69.5085 8.7975C69.3977 8.84216 69.2979 8.91018 69.216 8.99689C69.1341 9.0836 69.0719 9.18694 69.0338 9.29985C68.9957 9.41275 68.9825 9.53254 68.9951 9.65101V11.7584H68.2822V8.15609Z" fill="black"/>
<path d="M75.3784 7.25977V8.17305H76.1611V8.77188H75.3784V10.6242C75.3784 11.0016 75.5344 11.1668 75.8892 11.1668C75.9801 11.1665 76.0709 11.161 76.1611 11.1504V11.7426C76.0331 11.7654 75.9033 11.7776 75.7733 11.7789C74.9805 11.7789 74.6648 11.5008 74.6648 10.8062V8.77185H74.0913V8.17301H74.6648V7.25977H75.3784Z" fill="black"/>
<path d="M77.1348 6.75H77.8414V8.73516H77.8978C77.9926 8.5277 78.1492 8.35443 78.3463 8.23895C78.5434 8.12347 78.7714 8.07141 78.9992 8.08985C79.1741 8.08036 79.3489 8.10947 79.5112 8.1751C79.6734 8.24074 79.8192 8.34128 79.938 8.46955C80.0568 8.59782 80.1458 8.75066 80.1986 8.91717C80.2513 9.08367 80.2666 9.25974 80.2433 9.43282V11.7586H79.5297V9.6082C79.5297 9.03281 79.2609 8.7414 78.7572 8.7414C78.6347 8.73138 78.5115 8.74818 78.3961 8.79062C78.2808 8.83306 78.1761 8.90012 78.0895 8.98711C78.0029 9.0741 77.9363 9.17892 77.8946 9.29423C77.8528 9.40954 77.8368 9.53256 77.8477 9.65468V11.7586H77.1348L77.1348 6.75Z" fill="black"/>
<path d="M84.4002 10.7862C84.3033 11.1154 84.0935 11.4002 83.8073 11.5907C83.5212 11.7812 83.177 11.8654 82.8349 11.8284C82.597 11.8346 82.3605 11.7892 82.1418 11.6952C81.9232 11.6011 81.7278 11.4608 81.569 11.2839C81.4102 11.107 81.292 10.8977 81.2224 10.6707C81.1529 10.4436 81.1337 10.2042 81.1663 9.96901C81.1346 9.7331 81.1541 9.49315 81.2235 9.26541C81.2929 9.03768 81.4105 8.82746 81.5684 8.649C81.7264 8.47055 81.9209 8.32801 82.1389 8.23104C82.3568 8.13408 82.5931 8.08494 82.8318 8.08697C83.8369 8.08697 84.4433 8.77177 84.4433 9.90297V10.151H81.8925V10.1909C81.8813 10.3231 81.898 10.4561 81.9414 10.5815C81.9848 10.7069 82.0541 10.8219 82.1446 10.9191C82.2352 11.0162 82.3451 11.0935 82.4674 11.1458C82.5896 11.1981 82.7215 11.2244 82.8545 11.2229C83.0251 11.2433 83.1978 11.2127 83.3509 11.1349C83.5039 11.0571 83.6303 10.9358 83.7139 10.7862L84.4002 10.7862ZM81.8925 9.62525H83.717C83.726 9.50435 83.7095 9.38291 83.6687 9.26874C83.6278 9.15456 83.5634 9.05018 83.4797 8.96229C83.3959 8.87441 83.2947 8.80496 83.1824 8.75842C83.0702 8.71188 82.9494 8.68928 82.8279 8.69205C82.7046 8.69051 82.5822 8.7136 82.468 8.75995C82.3538 8.80631 82.25 8.87499 82.1629 8.96197C82.0757 9.04894 82.0069 9.15243 81.9604 9.26635C81.914 9.38026 81.8909 9.5023 81.8925 9.62525H81.8925Z" fill="black"/>
<path d="M20.412 15.9554C20.421 15.2591 20.6059 14.5764 20.9497 13.9708C21.2934 13.3652 21.7847 12.8564 22.3779 12.4917C22.0011 11.9535 21.5039 11.5106 20.9259 11.1981C20.348 10.8857 19.7051 10.7123 19.0484 10.6917C17.6476 10.5447 16.2895 11.53 15.5756 11.53C14.848 11.53 13.7489 10.7063 12.5654 10.7307C11.7998 10.7554 11.0538 10.978 10.3998 11.3768C9.74591 11.7756 9.20644 12.337 8.83399 13.0063C7.22065 15.7996 8.42406 19.9048 9.96953 22.1627C10.7428 23.2684 11.6464 24.5034 12.8289 24.4596C13.986 24.4116 14.4182 23.7217 15.8149 23.7217C17.1987 23.7217 17.6041 24.4596 18.8106 24.4317C20.0522 24.4116 20.8345 23.3212 21.5806 22.2051C22.1362 21.4173 22.5637 20.5466 22.8473 19.6253C22.1259 19.3202 21.5104 18.8095 21.0773 18.1569C20.6442 17.5043 20.4129 16.7386 20.412 15.9554Z" fill="black"/>
<path d="M18.1331 9.20686C18.8101 8.39416 19.1436 7.34957 19.0629 6.29492C18.0286 6.40355 17.0732 6.89787 16.3871 7.67939C16.0516 8.06119 15.7947 8.50535 15.631 8.9865C15.4672 9.46766 15.4 9.97636 15.433 10.4835C15.9503 10.4888 16.4621 10.3767 16.9298 10.1556C17.3975 9.93444 17.8089 9.61006 18.1331 9.20686Z" fill="black"/>
<rect x="0.5" y="0.5" width="107" height="31" rx="5.5" stroke="black"/>
</svg>
