<svg width="75" height="44" viewBox="0 0 75 44" fill="none" xmlns="http://www.w3.org/2000/svg">
<path d="M5.4 13.625H7.056V10.409H8.28C10.2 10.409 11.532 9.497 11.532 7.817C11.532 6.137 10.2 5.225 8.28 5.225H5.4V13.625ZM7.056 9.053V6.581H8.28C9.24 6.581 9.876 6.857 9.876 7.817C9.876 8.777 9.24 9.053 8.28 9.053H7.056ZM15.0247 13.817C16.7047 13.817 18.1447 12.545 18.1447 10.625C18.1447 8.705 16.7047 7.433 15.0247 7.433C13.3447 7.433 11.8927 8.705 11.8927 10.625C11.8927 12.545 13.3447 13.817 15.0247 13.817ZM13.5487 10.625C13.5487 9.425 14.0647 8.789 15.0247 8.789C15.9847 8.789 16.5007 9.425 16.5007 10.625C16.5007 11.825 15.9847 12.461 15.0247 12.461C14.0647 12.461 13.5487 11.825 13.5487 10.625ZM20.2079 13.625H22.0439L23.2079 9.905L24.3599 13.625H26.1959L27.6599 7.625H25.9439L25.0559 11.273L23.9159 7.625H22.4879L21.3479 11.273L20.4599 7.625H18.7439L20.2079 13.625ZM31.3958 13.817C33.0758 13.817 34.1198 12.929 34.2758 11.861L32.6438 11.741C32.5118 12.077 32.2358 12.461 31.3958 12.461C30.6158 12.461 29.9318 11.945 29.9318 11.105H34.2758V10.649C34.2758 8.609 32.9678 7.433 31.2878 7.433C29.6077 7.433 28.2638 8.609 28.2638 10.649C28.2638 12.689 29.7158 13.817 31.3958 13.817ZM29.9318 9.929C29.9318 9.209 30.5678 8.789 31.2878 8.789C32.0078 8.789 32.6078 9.209 32.6078 9.929H29.9318ZM35.3034 13.625H36.9234V11.129C36.9234 9.569 37.2954 8.981 38.3754 8.981H39.3594V7.625H38.2554C37.5594 7.625 37.1394 8.141 36.9234 8.873V7.625H35.3034V13.625ZM42.7278 13.817C44.4078 13.817 45.4518 12.929 45.6078 11.861L43.9758 11.741C43.8438 12.077 43.5678 12.461 42.7278 12.461C41.9478 12.461 41.2638 11.945 41.2638 11.105H45.6078V10.649C45.6078 8.609 44.2998 7.433 42.6198 7.433C40.9398 7.433 39.5958 8.609 39.5958 10.649C39.5958 12.689 41.0478 13.817 42.7278 13.817ZM41.2638 9.929C41.2638 9.209 41.8998 8.789 42.6198 8.789C43.3398 8.789 43.9398 9.209 43.9398 9.929H41.2638ZM51.0247 13.625H52.6447V5.225H51.0247V8.645C50.7007 7.949 50.0767 7.433 49.0567 7.433C47.2567 7.433 46.3927 8.849 46.3927 10.625C46.3927 12.401 47.2567 13.817 49.0567 13.817C50.0767 13.817 50.7007 13.301 51.0247 12.605V13.625ZM48.0487 10.625C48.0487 9.305 48.8167 8.789 49.5367 8.789C50.2567 8.789 51.0247 9.305 51.0247 10.625C51.0247 11.945 50.2567 12.461 49.5367 12.461C48.8167 12.461 48.0487 11.945 48.0487 10.625ZM56.6081 13.625H58.2281V12.605C58.5521 13.301 59.1761 13.817 60.1961 13.817C61.9961 13.817 62.8601 12.401 62.8601 10.625C62.8601 8.849 61.9961 7.433 60.1961 7.433C59.1761 7.433 58.5521 7.949 58.2281 8.645V5.225H56.6081V13.625ZM58.2281 10.625C58.2281 9.305 58.9961 8.789 59.7161 8.789C60.4361 8.789 61.2041 9.305 61.2041 10.625C61.2041 11.945 60.4361 12.461 59.7161 12.461C58.9961 12.461 58.2281 11.945 58.2281 10.625ZM65.6721 13.625L64.6161 16.025H66.2961L70.0041 7.625H68.3241L66.5361 11.681L64.8801 7.625H63.2241L65.6721 13.625Z" fill="#C9C9C9"/>
<path d="M64.2153 39.9039C68.5626 39.9039 70.8403 37.5076 71.9653 35.2825L68.0903 33.475C67.514 34.8443 66.0209 35.9808 64.2153 35.9808C61.4931 35.9808 59.4792 33.8105 59.4792 31.0034C59.4792 28.1895 61.4931 26.0261 64.2153 26.0261C66.0209 26.0261 67.514 27.1626 68.0903 28.5319L71.9653 26.7244C70.8126 24.4514 68.5626 22.103 64.2153 22.103C58.9792 22.103 54.8959 25.6906 54.8959 31.0034C54.9028 36.2889 58.9862 39.9039 64.2153 39.9039ZM48.9306 28.0868C48.9306 29.2507 48.0417 29.997 46.8403 29.997H43.2015V26.1288H46.8403C48.0417 26.1219 48.9306 26.8956 48.9306 28.0868ZM43.2015 39.5958V33.7626H47.4445C51.3681 33.7626 53.514 31.2088 53.514 28.1142C53.514 24.9922 51.3681 22.3837 47.4445 22.3837H38.7015V39.5958H43.2015ZM25.6667 32.7014H30.1945C31.2917 32.7014 31.9237 33.4476 31.9237 34.324C31.9237 35.2551 31.2709 35.8987 30.1945 35.8987H25.6667V32.7014ZM25.6667 26.074H30.0348C30.9515 26.074 31.5765 26.697 31.5765 27.546C31.5765 28.3949 30.9515 29.0454 30.0348 29.0454H25.6667V26.074ZM31.3681 39.5958C34.7987 39.5958 36.5001 37.4254 36.5001 34.9265C36.5001 32.7561 35.0348 31.0034 33.1737 30.7227C34.8195 30.3599 36.1598 28.9153 36.1598 26.7723C36.1598 24.602 34.514 22.3837 31.0556 22.3837H21.1598V39.5958H31.3681Z" fill="#C9C9C9"/>
<path d="M7.9723 31.0307L3.04869 39.4177C3.00008 39.493 3.06258 39.5888 3.15286 39.5888C3.91675 39.5751 6.64591 39.5409 8.96536 39.5409C11.6598 39.5409 12.9654 37.1172 12.9931 37.0693L16.7084 31.0376L12.9931 25.0058C12.9654 24.9511 11.6529 22.5343 8.96536 22.5343C6.64591 22.5343 3.91675 22.5 3.15286 22.4863C3.06258 22.4863 3.00702 22.5822 3.04869 22.6575L7.9723 31.0307Z" fill="#C9C9C9"/>
</svg>
