<svg width="9" height="7" viewBox="0 0 9 7" fill="none" xmlns="http://www.w3.org/2000/svg">
<path d="M8.15625 0.25C8.61328 0.25 9 0.636719 9 1.09375C9 1.375 8.85938 1.62109 8.64844 1.7793L4.83398 4.64453C4.62305 4.80273 4.35938 4.80273 4.14844 4.64453L0.333984 1.7793C0.123047 1.62109 0 1.375 0 1.09375C0 0.636719 0.369141 0.25 0.84375 0.25H8.15625ZM3.81445 5.10156C4.21875 5.40039 4.76367 5.40039 5.16797 5.10156L9 2.21875V5.875C9 6.50781 8.49023 7 7.875 7H1.125C0.492188 7 0 6.50781 0 5.875V2.21875L3.81445 5.10156Z" fill="#A1A1A1"/>
</svg>
