<svg width="108" height="32" viewBox="0 0 108 32" fill="none" xmlns="http://www.w3.org/2000/svg">
<rect x="0.5" y="0.5" width="107" height="31" rx="5.5" fill="white"/>
<g filter="url(#filter0_ii_1542_52756)">
<path d="M8.77021 6.11246C8.53992 6.3562 8.40381 6.73447 8.40381 7.22433V24.7262C8.40381 25.2168 8.53992 25.5943 8.77021 25.8381L8.82877 25.895L18.633 16.0908V15.9753V15.8597L8.82877 6.05469L8.77021 6.11246Z" fill="url(#paint0_linear_1542_52756)"/>
<path d="M21.9004 19.3594L18.6328 16.0902V15.9747V15.8592L21.9012 12.5908L21.9748 12.6328L25.8469 14.8328C26.9525 15.4611 26.9525 16.4891 25.8469 17.1182L21.9748 19.3182L21.9004 19.3594Z" fill="url(#paint1_linear_1542_52756)"/>
<g filter="url(#filter1_i_1542_52756)">
<path d="M21.9748 19.3173L18.632 15.9746L8.77002 25.8374C9.13405 26.2236 9.73628 26.2711 10.4145 25.8865L21.9748 19.3173Z" fill="url(#paint2_linear_1542_52756)"/>
</g>
<path d="M21.9748 12.6322L10.4145 6.06381C9.73628 5.67841 9.13405 5.72669 8.77002 6.11288L18.6328 15.9757L21.9748 12.6322Z" fill="url(#paint3_linear_1542_52756)"/>
</g>
<path d="M54.5526 17.3646C52.671 17.3646 51.1374 18.795 51.1374 20.767C51.1374 22.7262 52.671 24.1694 54.5526 24.1694C56.4342 24.1694 57.9678 22.7262 57.9678 20.767C57.9678 18.795 56.4342 17.3646 54.5526 17.3646ZM54.5526 22.8294C53.5214 22.8294 52.6318 21.979 52.6318 20.767C52.6318 19.5422 53.5214 18.7046 54.5526 18.7046C55.5838 18.7046 56.4726 19.5422 56.4726 20.767C56.4726 21.9782 55.5838 22.8294 54.5526 22.8294ZM47.1014 17.3646C45.2198 17.3646 43.6862 18.795 43.6862 20.767C43.6862 22.7262 45.2198 24.1694 47.1014 24.1694C48.983 24.1694 50.5166 22.7262 50.5166 20.767C50.5174 18.795 48.983 17.3646 47.1014 17.3646ZM47.1014 22.8294C46.0702 22.8294 45.1814 21.979 45.1814 20.767C45.1814 19.5422 46.071 18.7046 47.1014 18.7046C48.1326 18.7046 49.0214 19.5422 49.0214 20.767C49.0222 21.9782 48.1326 22.8294 47.1014 22.8294ZM38.239 18.4086V19.8518H41.6934C41.5902 20.6638 41.3198 21.2566 40.907 21.6694C40.4046 22.1718 39.6182 22.7262 38.239 22.7262C36.1126 22.7262 34.4502 21.0118 34.4502 18.8854C34.4502 16.759 36.1126 15.0446 38.239 15.0446C39.3862 15.0446 40.2238 15.4958 40.8422 16.0758L41.8606 15.0574C40.9974 14.2326 39.8502 13.6006 38.239 13.6006C35.3262 13.6006 32.8774 15.9718 32.8774 18.8846C32.8774 21.7974 35.3262 24.1686 38.239 24.1686C39.811 24.1686 40.9974 23.6534 41.9254 22.6862C42.879 21.7326 43.1758 20.3918 43.1758 19.3094C43.1758 18.9742 43.1502 18.6646 43.0982 18.407H38.239V18.4086ZM74.4854 19.5294C74.2022 18.7686 73.3382 17.3638 71.5726 17.3638C69.8198 17.3638 68.3638 18.743 68.3638 20.7662C68.3638 22.6734 69.807 24.1686 71.7406 24.1686C73.2998 24.1686 74.2022 23.215 74.5758 22.6606L73.4158 21.887C73.0294 22.4542 72.5006 22.8278 71.7406 22.8278C70.9798 22.8278 70.439 22.4798 70.091 21.7966L74.6406 19.915L74.4854 19.5294ZM69.8454 20.6638C69.807 19.3494 70.8638 18.679 71.6238 18.679C72.2166 18.679 72.719 18.975 72.887 19.4006L69.8454 20.6638ZM66.1462 23.963H67.6414V13.9622H66.1462V23.963ZM63.6974 18.1246H63.6462C63.311 17.7254 62.667 17.3638 61.855 17.3638C60.1534 17.3638 58.5942 18.859 58.5942 20.779C58.5942 22.6862 60.1534 24.1686 61.855 24.1686C62.667 24.1686 63.311 23.8078 63.6462 23.395H63.6974V23.8846C63.6974 25.1862 63.0014 25.8822 61.8798 25.8822C60.9646 25.8822 60.3974 25.2246 60.1654 24.671L58.8638 25.2126C59.2374 26.115 60.2302 27.223 61.8798 27.223C63.6326 27.223 65.115 26.1918 65.115 23.679V17.5702H63.6974V18.1246ZM61.9838 22.8294C60.9526 22.8294 60.0894 21.9662 60.0894 20.7798C60.0894 19.5814 60.9526 18.7046 61.9838 18.7046C63.0022 18.7046 63.8006 19.5806 63.8006 20.7798C63.8006 21.9654 63.0022 22.8294 61.9838 22.8294ZM81.4886 13.9622H77.9118V23.963H79.4038V20.1742H81.4878C83.1422 20.1742 84.7686 18.9766 84.7686 17.0686C84.7686 15.1606 83.143 13.9622 81.4886 13.9622ZM81.527 18.7822H79.4038V15.3542H81.527C82.643 15.3542 83.2766 16.2782 83.2766 17.0686C83.2766 17.843 82.643 18.7822 81.527 18.7822ZM90.7526 17.3462C89.6718 17.3462 88.5526 17.8222 88.0894 18.8774L89.415 19.431C89.6982 18.8774 90.2254 18.6974 90.779 18.6974C91.551 18.6974 92.3358 19.1606 92.3486 19.9838V20.087C92.0782 19.9326 91.499 19.7006 90.7918 19.7006C89.3638 19.7006 87.9094 20.4854 87.9094 21.9526C87.9094 23.291 89.0806 24.1526 90.3926 24.1526C91.3966 24.1526 91.9494 23.7022 92.2966 23.175H92.3478V23.947H93.7886V20.1126C93.7886 18.3366 92.4638 17.3462 90.7526 17.3462ZM90.5718 22.827C90.083 22.827 89.4006 22.5822 89.4006 21.9782C89.4006 21.2062 90.2502 20.9102 90.983 20.9102C91.639 20.9102 91.9478 21.0518 92.347 21.2446C92.2318 22.171 91.4342 22.827 90.5718 22.827ZM99.0382 17.5646L97.327 21.9006H97.2758L95.5006 17.5646H93.8926L96.5558 23.6246L95.0374 26.9958H96.5942L100.699 17.5646H99.0382ZM85.5926 23.963H87.0854V13.9622H85.5926V23.963Z" fill="black"/>
<path fill-rule="evenodd" clip-rule="evenodd" d="M58.9648 9.77921C58.4928 10.2648 57.9064 10.5064 57.2048 10.5064C56.5032 10.5064 55.9168 10.264 55.4456 9.77921C54.9736 9.29441 54.7384 8.70081 54.7384 7.99921C54.7384 7.29761 54.9736 6.70401 55.4456 6.21921C55.9168 5.73361 56.5032 5.49121 57.2048 5.49121C57.9024 5.49121 58.488 5.73521 58.9616 6.22241C59.4352 6.70961 59.672 7.30161 59.672 7.99921C59.672 8.70161 59.436 9.29521 58.9648 9.77921ZM55.9008 9.37761C56.256 9.73761 56.6904 9.91681 57.2048 9.91681C57.7192 9.91681 58.1536 9.73681 58.5088 9.37761C58.864 9.01761 59.0424 8.55841 59.0424 8.00001C59.0424 7.44161 58.864 6.98161 58.5088 6.62241C58.1544 6.26241 57.7192 6.08321 57.2048 6.08321C56.6904 6.08321 56.256 6.26321 55.9008 6.62241C55.5464 6.98241 55.368 7.44161 55.368 8.00001C55.368 8.55841 55.5464 9.01761 55.9008 9.37761Z" fill="black"/>
<path d="M38.012 8.19441C38.012 8.86481 37.8136 9.39841 37.416 9.79681C36.9648 10.2704 36.376 10.5072 35.6528 10.5072C34.96 10.5072 34.3704 10.2672 33.8864 9.78721C33.4016 9.30641 33.1592 8.71121 33.1592 8.00081C33.1592 7.28961 33.4016 6.69441 33.8864 6.21441C34.3704 5.73361 34.96 5.49361 35.6528 5.49361C35.9968 5.49361 36.3256 5.56081 36.6376 5.69441C36.9504 5.82881 37.2008 6.00721 37.388 6.23041L36.9664 6.65281C36.6488 6.27281 36.2112 6.08321 35.652 6.08321C35.1464 6.08321 34.7096 6.26081 34.3408 6.61601C33.9728 6.97121 33.7888 7.43201 33.7888 8.00001C33.7888 8.56801 33.9728 9.02881 34.3416 9.38481C34.7104 9.74001 35.1472 9.91761 35.6528 9.91761C36.1888 9.91761 36.636 9.73921 36.9936 9.38161C37.2256 9.14881 37.36 8.82481 37.396 8.40961H35.6528V7.83201H37.9784C38.0016 7.95761 38.012 8.07841 38.012 8.19441Z" fill="black"/>
<path d="M41.7 6.18961H39.5144V7.71121H41.4856V8.28801H39.5144V9.80961H41.7V10.4H38.8976V5.60001H41.7V6.18961Z" fill="black"/>
<path d="M43.6832 10.4H44.3V6.18961H45.6408V5.60001H42.3424V6.18961H43.6832V10.4Z" fill="black"/>
<path d="M48.028 10.4V5.60001H48.6448V10.4H48.028Z" fill="black"/>
<path d="M50.7624 10.4H51.3792V6.18961H52.72V5.60001H49.4216V6.18961H50.7624V10.4Z" fill="black"/>
<path d="M60.5376 5.60001V10.4H61.1528V7.40961L61.1264 6.48481H61.1528L63.5936 10.4H64.2376V5.60001H63.6208V8.40961L63.6472 9.33441H63.6208L61.288 5.60001H60.5376Z" fill="black"/>
<path fill-rule="evenodd" clip-rule="evenodd" d="M58.9648 9.77921C58.4928 10.2648 57.9064 10.5064 57.2048 10.5064C56.5032 10.5064 55.9168 10.264 55.4456 9.77921C54.9736 9.29441 54.7384 8.70081 54.7384 7.99921C54.7384 7.29761 54.9736 6.70401 55.4456 6.21921C55.9168 5.73361 56.5032 5.49121 57.2048 5.49121C57.9024 5.49121 58.488 5.73521 58.9616 6.22241C59.4352 6.70961 59.672 7.30161 59.672 7.99921C59.672 8.70161 59.436 9.29521 58.9648 9.77921ZM55.9008 9.37761C56.256 9.73761 56.6904 9.91681 57.2048 9.91681C57.7192 9.91681 58.1536 9.73681 58.5088 9.37761C58.864 9.01761 59.0424 8.55841 59.0424 8.00001C59.0424 7.44161 58.864 6.98161 58.5088 6.62241C58.1544 6.26241 57.7192 6.08321 57.2048 6.08321C56.6904 6.08321 56.256 6.26321 55.9008 6.62241C55.5464 6.98241 55.368 7.44161 55.368 8.00001C55.368 8.55841 55.5464 9.01761 55.9008 9.37761Z" stroke="black" stroke-width="0.160442" stroke-miterlimit="10"/>
<path d="M38.012 8.19441C38.012 8.86481 37.8136 9.39841 37.416 9.79681C36.9648 10.2704 36.376 10.5072 35.6528 10.5072C34.96 10.5072 34.3704 10.2672 33.8864 9.78721C33.4016 9.30641 33.1592 8.71121 33.1592 8.00081C33.1592 7.28961 33.4016 6.69441 33.8864 6.21441C34.3704 5.73361 34.96 5.49361 35.6528 5.49361C35.9968 5.49361 36.3256 5.56081 36.6376 5.69441C36.9504 5.82881 37.2008 6.00721 37.388 6.23041L36.9664 6.65281C36.6488 6.27281 36.2112 6.08321 35.652 6.08321C35.1464 6.08321 34.7096 6.26081 34.3408 6.61601C33.9728 6.97121 33.7888 7.43201 33.7888 8.00001C33.7888 8.56801 33.9728 9.02881 34.3416 9.38481C34.7104 9.74001 35.1472 9.91761 35.6528 9.91761C36.1888 9.91761 36.636 9.73921 36.9936 9.38161C37.2256 9.14881 37.36 8.82481 37.396 8.40961H35.6528V7.83201H37.9784C38.0016 7.95761 38.012 8.07841 38.012 8.19441Z" stroke="black" stroke-width="0.160442" stroke-miterlimit="10"/>
<path d="M41.7 6.18961H39.5144V7.71121H41.4856V8.28801H39.5144V9.80961H41.7V10.4H38.8976V5.60001H41.7V6.18961Z" stroke="black" stroke-width="0.160442" stroke-miterlimit="10"/>
<path d="M43.6832 10.4H44.3V6.18961H45.6408V5.60001H42.3424V6.18961H43.6832V10.4Z" stroke="black" stroke-width="0.160442" stroke-miterlimit="10"/>
<path d="M48.028 10.4V5.60001H48.6448V10.4H48.028Z" stroke="black" stroke-width="0.160442" stroke-miterlimit="10"/>
<path d="M50.7624 10.4H51.3792V6.18961H52.72V5.60001H49.4216V6.18961H50.7624V10.4Z" stroke="black" stroke-width="0.160442" stroke-miterlimit="10"/>
<path d="M60.5376 5.60001V10.4H61.1528V7.40961L61.1264 6.48481H61.1528L63.5936 10.4H64.2376V5.60001H63.6208V8.40961L63.6472 9.33441H63.6208L61.288 5.60001H60.5376Z" stroke="black" stroke-width="0.160442" stroke-miterlimit="10"/>
<rect x="0.5" y="0.5" width="107" height="31" rx="5.5" stroke="black"/>
<defs>
<filter id="filter0_ii_1542_52756" x="8.40381" y="5.79785" width="18.2725" height="20.3545" filterUnits="userSpaceOnUse" color-interpolation-filters="sRGB">
<feFlood flood-opacity="0" result="BackgroundImageFix"/>
<feBlend mode="normal" in="SourceGraphic" in2="BackgroundImageFix" result="shape"/>
<feColorMatrix in="SourceAlpha" type="matrix" values="0 0 0 0 0 0 0 0 0 0 0 0 0 0 0 0 0 0 127 0" result="hardAlpha"/>
<feOffset dy="-0.118705"/>
<feComposite in2="hardAlpha" operator="arithmetic" k2="-1" k3="1"/>
<feColorMatrix type="matrix" values="0 0 0 0 0 0 0 0 0 0 0 0 0 0 0 0 0 0 0.12 0"/>
<feBlend mode="normal" in2="shape" result="effect1_innerShadow_1542_52756"/>
<feColorMatrix in="SourceAlpha" type="matrix" values="0 0 0 0 0 0 0 0 0 0 0 0 0 0 0 0 0 0 127 0" result="hardAlpha"/>
<feOffset dy="0.118705"/>
<feComposite in2="hardAlpha" operator="arithmetic" k2="-1" k3="1"/>
<feColorMatrix type="matrix" values="0 0 0 0 1 0 0 0 0 1 0 0 0 0 1 0 0 0 0.25 0"/>
<feBlend mode="normal" in2="effect1_innerShadow_1542_52756" result="effect2_innerShadow_1542_52756"/>
</filter>
<filter id="filter1_i_1542_52756" x="8.77002" y="15.9746" width="13.2046" height="10.1777" filterUnits="userSpaceOnUse" color-interpolation-filters="sRGB">
<feFlood flood-opacity="0" result="BackgroundImageFix"/>
<feBlend mode="normal" in="SourceGraphic" in2="BackgroundImageFix" result="shape"/>
<feColorMatrix in="SourceAlpha" type="matrix" values="0 0 0 0 0 0 0 0 0 0 0 0 0 0 0 0 0 0 127 0" result="hardAlpha"/>
<feOffset dy="-0.118705"/>
<feComposite in2="hardAlpha" operator="arithmetic" k2="-1" k3="1"/>
<feColorMatrix type="matrix" values="0 0 0 0 0 0 0 0 0 0 0 0 0 0 0 0 0 0 0.08 0"/>
<feBlend mode="normal" in2="shape" result="effect1_innerShadow_1542_52756"/>
</filter>
<linearGradient id="paint0_linear_1542_52756" x1="17.7639" y1="7.03915" x2="4.48322" y2="20.3199" gradientUnits="userSpaceOnUse">
<stop stop-color="#00A0FF"/>
<stop offset="0.0066" stop-color="#00A1FF"/>
<stop offset="0.2601" stop-color="#00BEFF"/>
<stop offset="0.5122" stop-color="#00D2FF"/>
<stop offset="0.7604" stop-color="#00DFFF"/>
<stop offset="1" stop-color="#00E3FF"/>
</linearGradient>
<linearGradient id="paint1_linear_1542_52756" x1="27.286" y1="15.9747" x2="8.13818" y2="15.9747" gradientUnits="userSpaceOnUse">
<stop stop-color="#FFE000"/>
<stop offset="0.4087" stop-color="#FFBD00"/>
<stop offset="0.7754" stop-color="#FFA500"/>
<stop offset="1" stop-color="#FF9C00"/>
</linearGradient>
<linearGradient id="paint2_linear_1542_52756" x1="20.1595" y1="17.7899" x2="2.14913" y2="35.8003" gradientUnits="userSpaceOnUse">
<stop stop-color="#FF3A44"/>
<stop offset="1" stop-color="#C31162"/>
</linearGradient>
<linearGradient id="paint3_linear_1542_52756" x1="6.28624" y1="0.286674" x2="14.3283" y2="8.32878" gradientUnits="userSpaceOnUse">
<stop stop-color="#32A071"/>
<stop offset="0.0685" stop-color="#2DA771"/>
<stop offset="0.4762" stop-color="#15CF74"/>
<stop offset="0.8009" stop-color="#06E775"/>
<stop offset="1" stop-color="#00F076"/>
</linearGradient>
</defs>
</svg>
