<svg width="24" height="24" viewBox="0 0 24 24" fill="none" xmlns="http://www.w3.org/2000/svg">
<path d="M16.875 15C17.7034 15 18.375 14.3284 18.375 13.5C18.375 12.6716 17.7034 12 16.875 12C16.0466 12 15.375 12.6716 15.375 13.5C15.375 14.3284 16.0466 15 16.875 15Z" fill="#EB4D3D"/>
<path d="M3.7492 6.375V18C3.7492 18.3978 3.90723 18.7794 4.18854 19.0607C4.46984 19.342 4.85137 19.5 5.2492 19.5H20.2492C20.4481 19.5 20.6389 19.421 20.7795 19.2803C20.9202 19.1397 20.9992 18.9489 20.9992 18.75V9C20.9992 8.80109 20.9202 8.61032 20.7795 8.46967C20.6389 8.32902 20.4481 8.25 20.2492 8.25H5.67107C5.17893 8.25545 4.70382 8.07002 4.34547 7.73265C3.98712 7.39528 3.77341 6.9322 3.7492 6.44063C3.74038 6.18893 3.78236 5.93804 3.87264 5.70292C3.96291 5.46781 4.09962 5.25329 4.27462 5.07217C4.44961 4.89105 4.6593 4.74704 4.89118 4.64874C5.12305 4.55043 5.37235 4.49985 5.6242 4.5H17.9992" stroke="#EB4D3D" stroke-width="1.8" stroke-linecap="round" stroke-linejoin="round"/>
</svg>
