<svg width="9" height="10" viewBox="0 0 9 10" fill="none" xmlns="http://www.w3.org/2000/svg">
<path d="M7.98438 7.04688L7.60938 8.625C7.5625 8.85938 7.375 9.01562 7.14062 9.01562C3.20312 9 0 5.79688 0 1.85938C0 1.625 0.140625 1.4375 0.375 1.39062L1.95312 1.01562C2.17188 0.96875 2.40625 1.09375 2.5 1.29688L3.23438 3C3.3125 3.20312 3.26562 3.4375 3.09375 3.5625L2.25 4.25C2.78125 5.32812 3.65625 6.20312 4.75 6.73438L5.4375 5.89062C5.5625 5.73438 5.79688 5.67188 6 5.75L7.70312 6.48438C7.90625 6.59375 8.03125 6.82812 7.98438 7.04688Z" fill="#A1A1A1"/>
</svg>
