<svg width="24" height="24" viewBox="0 0 24 24" fill="none" xmlns="http://www.w3.org/2000/svg">
<g id="icon">
<path id="Vector" d="M16.875 15C17.7034 15 18.375 14.3284 18.375 13.5C18.375 12.6716 17.7034 12 16.875 12C16.0466 12 15.375 12.6716 15.375 13.5C15.375 14.3284 16.0466 15 16.875 15Z" fill="#EB4D3D"/>
<path id="Vector_2" d="M3.75017 6.375V18C3.75017 18.3978 3.90821 18.7794 4.18951 19.0607C4.47082 19.342 4.85235 19.5 5.25017 19.5H20.2502C20.4491 19.5 20.6399 19.421 20.7805 19.2803C20.9212 19.1397 21.0002 18.9489 21.0002 18.75V9C21.0002 8.80109 20.9212 8.61032 20.7805 8.46967C20.6399 8.32902 20.4491 8.25 20.2502 8.25H5.67205C5.17991 8.25545 4.70479 8.07002 4.34645 7.73265C3.9881 7.39528 3.77439 6.9322 3.75017 6.44063C3.74136 6.18893 3.78334 5.93804 3.87361 5.70292C3.96389 5.46781 4.1006 5.25329 4.27559 5.07217C4.45059 4.89105 4.66028 4.74704 4.89215 4.64874C5.12402 4.55043 5.37332 4.49985 5.62517 4.5H18.0002" stroke="#EB4D3D" stroke-width="1.8" stroke-linecap="round" stroke-linejoin="round"/>
</g>
</svg>
