<svg width="20" height="17" viewBox="0 0 20 17" fill="none" xmlns="http://www.w3.org/2000/svg">
<path d="M14.9844 5.64844C14.6328 5.36719 14.1055 5.4375 13.7891 5.78906C13.5078 6.14062 13.543 6.66797 13.9297 6.98438C14.3164 7.30078 14.5625 7.75781 14.5625 8.25C14.5625 8.77734 14.3164 9.23438 13.9297 9.55078C13.543 9.86719 13.5078 10.3945 13.7891 10.7461C13.9648 10.957 14.2109 11.0625 14.457 11.0625C14.6328 11.0625 14.8438 10.9922 14.9844 10.8867C15.793 10.2188 16.25 9.26953 16.25 8.25C16.25 7.26562 15.793 6.31641 14.9844 5.64844ZM17.1289 3.04688C16.7422 2.76562 16.2148 2.83594 15.9336 3.1875C15.6172 3.53906 15.6875 4.06641 16.0391 4.38281C17.2344 5.33203 17.9375 6.77344 17.9375 8.25C17.9375 9.76172 17.2344 11.2031 16.0391 12.1523C15.6875 12.4688 15.6172 12.9961 15.9336 13.3477C16.1094 13.5586 16.3203 13.6641 16.5664 13.6641C16.7773 13.6641 16.9531 13.5938 17.1289 13.4883C18.7109 12.1875 19.625 10.2891 19.625 8.25C19.625 6.24609 18.7109 4.34766 17.1289 3.04688ZM11.082 0.480469C10.6602 0.304688 10.2031 0.375 9.85156 0.691406L5.10547 4.875H2.1875C1.23828 4.875 0.5 5.64844 0.5 6.5625V9.90234C0.5 10.8164 1.23828 11.5547 2.1875 11.5547H5.10547L9.85156 15.7734C10.0625 16.0547 10.3438 16.125 10.625 16.125C10.7656 16.125 10.9062 16.125 11.082 16.0547C11.4688 15.8438 11.75 15.457 11.75 15V1.5C11.75 1.07812 11.4688 0.65625 11.082 0.480469Z" fill="white"/>
</svg>
