<svg width="24" height="24" viewBox="0 0 24 24" fill="none" xmlns="http://www.w3.org/2000/svg">
<path d="M17.9497 6.05025C17.7154 5.81593 17.3355 5.81593 17.1012 6.05025L12 11.1515L6.89878 6.05025C6.66446 5.81593 6.28456 5.81593 6.05025 6.05025C5.81593 6.28456 5.81593 6.66446 6.05025 6.89878L11.1515 12L6.05025 17.1012C5.81593 17.3355 5.81593 17.7154 6.05025 17.9497C6.28456 18.1841 6.66446 18.1841 6.89878 17.9497L12 12.8485L17.1012 17.9497C17.3355 18.1841 17.7154 18.1841 17.9497 17.9497C18.1841 17.7154 18.1841 17.3355 17.9497 17.1012L12.8485 12L17.9497 6.89878C18.1841 6.66446 18.1841 6.28456 17.9497 6.05025Z" fill="#1B7BBD"/>
</svg>
