<svg width="36" height="36" viewBox="0 0 36 36" fill="none" xmlns="http://www.w3.org/2000/svg">
<circle cx="18" cy="18" r="18" fill="#ED2C37" fill-opacity="0.08"/>
<path opacity="0.3" d="M17.9999 6.96973C16.258 6.96973 14.7338 7.62295 13.4999 8.85682C12.1935 10.1633 11.6128 11.6149 11.6128 13.3568C11.6128 15.0988 12.1935 16.623 13.4999 17.8568C14.7338 19.1633 16.258 19.7439 17.9999 19.7439C19.7419 19.7439 21.1935 19.1633 22.4999 17.8568C23.7338 16.623 24.387 15.0988 24.387 13.3568C24.387 11.6149 23.7338 10.1633 22.4999 8.85682C21.1935 7.62295 19.7419 6.96973 17.9999 6.96973ZM17.9999 31.9375C20.0322 31.9375 21.9919 31.502 23.879 30.631C25.7661 29.76 27.3628 28.5988 28.6693 27.002C27.9435 25.6955 26.9273 24.6794 25.6935 23.881C24.387 23.0826 23.008 22.6471 21.4838 22.6471C21.3386 22.6471 21.1209 22.7197 20.9757 22.7197C19.9596 23.0826 18.9435 23.2278 17.9999 23.2278C16.9838 23.2278 16.0402 23.0826 15.0241 22.7197C14.8064 22.7197 14.6612 22.6471 14.516 22.6471C12.9193 22.6471 11.5402 23.0826 10.3064 23.881C8.99992 24.6794 8.05637 25.6955 7.33057 27.002C8.63702 28.5988 10.1612 29.76 12.0483 30.631C13.9354 31.502 15.8951 31.9375 17.9999 31.9375Z" fill="#EC5157"/>
</svg>
