<svg width="40" height="40" viewBox="0 0 40 40" fill="none" xmlns="http://www.w3.org/2000/svg">
<g clip-path="url(#clip0_4296_3608)">
<circle cx="20" cy="20" r="20" fill="#F2B660" fill-opacity="0.12"/>
<path d="M20 23.75C22.0711 23.75 23.75 22.0711 23.75 20C23.75 17.9289 22.0711 16.25 20 16.25C17.9289 16.25 16.25 17.9289 16.25 20C16.25 22.0711 17.9289 23.75 20 23.75Z" stroke="#E3923B" stroke-width="1.8" stroke-linecap="round" stroke-linejoin="round"/>
<path d="M24.9781 27.5C23.3076 28.6091 21.3145 29.1286 19.3151 28.976C17.3157 28.8234 15.4246 28.0075 13.9417 26.6577C12.4588 25.3079 11.4692 23.5015 11.1298 21.5252C10.7905 19.549 11.1208 17.5159 12.0685 15.7488C13.0161 13.9816 14.5267 12.5816 16.3607 11.7707C18.1947 10.9599 20.2469 10.7847 22.1917 11.273C24.1365 11.7613 25.8626 12.8851 27.096 14.4661C28.3294 16.0471 28.9995 17.9948 29 20C29 22.0718 28.25 23.75 26.375 23.75C24.5 23.75 23.75 22.0718 23.75 20V16.25" stroke="#E3923B" stroke-width="1.8" stroke-linecap="round" stroke-linejoin="round"/>
</g>
<defs>
<clipPath id="clip0_4296_3608">
<rect width="40" height="40" fill="white"/>
</clipPath>
</defs>
</svg>
