<svg width="40" height="40" viewBox="0 0 40 40" fill="none" xmlns="http://www.w3.org/2000/svg">
<g clip-path="url(#clip0_4296_3524)">
<circle cx="20" cy="20" r="20" fill="#F2B660" fill-opacity="0.12"/>
<path d="M27.5 16.25H12.5C12.0858 16.25 11.75 16.5858 11.75 17V27.5C11.75 27.9142 12.0858 28.25 12.5 28.25H27.5C27.9142 28.25 28.25 27.9142 28.25 27.5V17C28.25 16.5858 27.9142 16.25 27.5 16.25Z" stroke="#E3923B" stroke-width="1.8" stroke-linecap="round" stroke-linejoin="round"/>
<path d="M16.625 16.25V12.875C16.625 11.9799 16.9806 11.1214 17.6135 10.4885C18.2465 9.85558 19.1049 9.5 20 9.5C20.8951 9.5 21.7535 9.85558 22.3865 10.4885C23.0194 11.1214 23.375 11.9799 23.375 12.875V16.25" stroke="#E3923B" stroke-width="1.8" stroke-linecap="round" stroke-linejoin="round"/>
<path d="M20 23.75C20.8284 23.75 21.5 23.0784 21.5 22.25C21.5 21.4216 20.8284 20.75 20 20.75C19.1716 20.75 18.5 21.4216 18.5 22.25C18.5 23.0784 19.1716 23.75 20 23.75Z" fill="#E3923B"/>
</g>
<defs>
<clipPath id="clip0_4296_3524">
<rect width="40" height="40" fill="white"/>
</clipPath>
</defs>
</svg>
