<svg width="48" height="48" viewBox="0 0 48 48" fill="none" xmlns="http://www.w3.org/2000/svg">
<g filter="url(#filter0_d_4101_58095)">
<rect x="12" y="8" width="24" height="24" rx="12" fill="white"/>
<path d="M21.7938 25.4999H19C18.8674 25.4999 18.7402 25.4473 18.6464 25.3535C18.5527 25.2597 18.5 25.1326 18.5 24.9999V22.2062C18.4998 22.1413 18.5124 22.0769 18.537 22.0169C18.5617 21.9568 18.598 21.9022 18.6438 21.8562L26.1438 14.3562C26.1903 14.309 26.2457 14.2714 26.3069 14.2458C26.3681 14.2202 26.4337 14.207 26.5 14.207C26.5663 14.207 26.632 14.2202 26.6931 14.2458C26.7543 14.2714 26.8097 14.309 26.8563 14.3562L29.6438 17.1437C29.691 17.1902 29.7285 17.2457 29.7541 17.3068C29.7797 17.368 29.7929 17.4336 29.7929 17.4999C29.7929 17.5663 29.7797 17.6319 29.7541 17.6931C29.7285 17.7542 29.691 17.8097 29.6438 17.8562L22.1438 25.3562C22.0977 25.402 22.0431 25.4383 21.9831 25.4629C21.923 25.4876 21.8587 25.5002 21.7938 25.4999Z" stroke="#652A5B" stroke-width="1.8" stroke-linecap="round" stroke-linejoin="round"/>
<path d="M24.5 16L28 19.5" stroke="#652A5B" stroke-width="1.8" stroke-linecap="round" stroke-linejoin="round"/>
</g>
<defs>
<filter id="filter0_d_4101_58095" x="0" y="0" width="48" height="48" filterUnits="userSpaceOnUse" color-interpolation-filters="sRGB">
<feFlood flood-opacity="0" result="BackgroundImageFix"/>
<feColorMatrix in="SourceAlpha" type="matrix" values="0 0 0 0 0 0 0 0 0 0 0 0 0 0 0 0 0 0 127 0" result="hardAlpha"/>
<feOffset dy="4"/>
<feGaussianBlur stdDeviation="6"/>
<feColorMatrix type="matrix" values="0 0 0 0 0 0 0 0 0 0 0 0 0 0 0 0 0 0 0.06 0"/>
<feBlend mode="normal" in2="BackgroundImageFix" result="effect1_dropShadow_4101_58095"/>
<feBlend mode="normal" in="SourceGraphic" in2="effect1_dropShadow_4101_58095" result="shape"/>
</filter>
</defs>
</svg>
