<svg width="40" height="40" viewBox="0 0 40 40" fill="none" xmlns="http://www.w3.org/2000/svg">
<circle cx="20" cy="20" r="20" fill="#F2B660" fill-opacity="0.12"/>
<path d="M16.6906 28.2499H12.5C12.3011 28.2499 12.1103 28.1709 11.9697 28.0302C11.829 27.8896 11.75 27.6988 11.75 27.4999V23.3093C11.7497 23.2119 11.7685 23.1154 11.8055 23.0253C11.8425 22.9352 11.8969 22.8533 11.9656 22.7843L23.2156 11.5343C23.2854 11.4634 23.3686 11.4072 23.4603 11.3687C23.5521 11.3303 23.6505 11.3105 23.75 11.3105C23.8495 11.3105 23.9479 11.3303 24.0397 11.3687C24.1314 11.4072 24.2146 11.4634 24.2844 11.5343L28.4656 15.7155C28.5365 15.7853 28.5928 15.8685 28.6312 15.9603C28.6696 16.052 28.6894 16.1505 28.6894 16.2499C28.6894 16.3494 28.6696 16.4478 28.6312 16.5396C28.5928 16.6313 28.5365 16.7145 28.4656 16.7843L17.2156 28.0343C17.1466 28.103 17.0647 28.1574 16.9746 28.1944C16.8845 28.2314 16.788 28.2503 16.6906 28.2499Z" stroke="#E3923B" stroke-width="1.8" stroke-linecap="round" stroke-linejoin="round"/>
<path d="M20.75 14L26 19.25" stroke="#E3923B" stroke-width="1.8" stroke-linecap="round" stroke-linejoin="round"/>
</svg>
