<svg width="40" height="40" viewBox="0 0 40 40" fill="none" xmlns="http://www.w3.org/2000/svg">
<circle cx="20" cy="20" r="20" fill="#F2B660" fill-opacity="0.12"/>
<path d="M16.0625 13.4375L20 9.5L23.9375 13.4375" stroke="#E3923B" stroke-width="1.8" stroke-linecap="round" stroke-linejoin="round"/>
<path d="M20 20V9.5" stroke="#E3923B" stroke-width="1.8" stroke-linecap="round" stroke-linejoin="round"/>
<path d="M24.5 17.375H26.75C26.9489 17.375 27.1397 17.454 27.2803 17.5947C27.421 17.7353 27.5 17.9261 27.5 18.125V27.5C27.5 27.6989 27.421 27.8897 27.2803 28.0303C27.1397 28.171 26.9489 28.25 26.75 28.25H13.25C13.0511 28.25 12.8603 28.171 12.7197 28.0303C12.579 27.8897 12.5 27.6989 12.5 27.5V18.125C12.5 17.9261 12.579 17.7353 12.7197 17.5947C12.8603 17.454 13.0511 17.375 13.25 17.375H15.5" stroke="#E3923B" stroke-width="1.8" stroke-linecap="round" stroke-linejoin="round"/>
</svg>
