<svg width="48" height="48" viewBox="0 0 48 48" fill="none" xmlns="http://www.w3.org/2000/svg">
<g clip-path="url(#clip0_5347_8183)">
<rect width="48" height="48" rx="10" fill="white"/>
<rect width="48" height="48" fill="white"/>
<path d="M20.9081 24.0557L12.0936 39.2853C12.0066 39.4221 12.1184 39.5962 12.2801 39.5962C13.6476 39.5713 18.5336 39.5091 22.686 39.5091C27.5097 39.5091 29.847 35.1081 29.8968 35.021L36.5481 24.0681L29.8968 13.1152C29.847 13.0157 27.4973 8.62707 22.686 8.62707C18.5336 8.62707 13.6476 8.5649 12.2801 8.54004C12.1184 8.54004 12.019 8.71409 12.0936 8.85085L20.9081 24.0557Z" fill="#501851"/>
</g>
<rect x="0.5" y="0.5" width="47" height="47" rx="9.5" stroke="#E5E5E5"/>
<defs>
<clipPath id="clip0_5347_8183">
<rect width="48" height="48" rx="10" fill="white"/>
</clipPath>
</defs>
</svg>
