<svg width="40" height="40" viewBox="0 0 40 40" fill="none" xmlns="http://www.w3.org/2000/svg">
<g clip-path="url(#clip0_4296_13559)">
<circle cx="20" cy="20" r="20" fill="#F2B660" fill-opacity="0.12"/>
<path d="M20 29C24.9706 29 29 24.9706 29 20C29 15.0294 24.9706 11 20 11C15.0294 11 11 15.0294 11 20C11 24.9706 15.0294 29 20 29Z" stroke="#E3923B" stroke-width="1.8" stroke-linecap="round" stroke-linejoin="round"/>
<path d="M11.5156 17H28.4844" stroke="#E3923B" stroke-width="1.8" stroke-linecap="round" stroke-linejoin="round"/>
<path d="M11.5156 23H28.4844" stroke="#E3923B" stroke-width="1.8" stroke-linecap="round" stroke-linejoin="round"/>
<path d="M20 28.7562C22.0711 28.7562 23.75 24.8358 23.75 19.9999C23.75 15.164 22.0711 11.2437 20 11.2437C17.9289 11.2437 16.25 15.164 16.25 19.9999C16.25 24.8358 17.9289 28.7562 20 28.7562Z" stroke="#E3923B" stroke-width="1.8" stroke-linecap="round" stroke-linejoin="round"/>
</g>
<defs>
<clipPath id="clip0_4296_13559">
<rect width="40" height="40" fill="white"/>
</clipPath>
</defs>
</svg>
