<svg width="40" height="40" viewBox="0 0 40 40" fill="none" xmlns="http://www.w3.org/2000/svg">
<g clip-path="url(#clip0_4296_3692)">
<circle cx="20" cy="20" r="20" fill="#F2B660" fill-opacity="0.12"/>
<path d="M13.2685 17.75C13.2673 16.8608 13.442 15.9802 13.7825 15.1589C14.123 14.3375 14.6227 13.5917 15.2527 12.9643C15.8828 12.3369 16.6307 11.8403 17.4535 11.5032C18.2762 11.166 19.1575 10.995 20.0467 11C23.7592 11.0281 26.731 14.1125 26.731 17.8344V18.5C26.731 21.8562 27.4342 23.8062 28.0529 24.875C28.1186 24.9888 28.1533 25.1179 28.1534 25.2493C28.1535 25.3808 28.1191 25.5099 28.0536 25.6238C27.9881 25.7378 27.8938 25.8325 27.7801 25.8985C27.6665 25.9645 27.5375 25.9995 27.406 26H12.5935C12.4621 25.9995 12.3331 25.9645 12.2195 25.8985C12.1058 25.8325 12.0115 25.7378 11.946 25.6238C11.8805 25.5099 11.8461 25.3808 11.8462 25.2493C11.8463 25.1179 11.881 24.9888 11.9467 24.875C12.5654 23.8062 13.2685 21.8562 13.2685 18.5V17.75Z" stroke="#E3923B" stroke-width="1.8" stroke-linecap="round" stroke-linejoin="round"/>
<path d="M17 26V26.75C17 27.5456 17.3161 28.3087 17.8787 28.8713C18.4413 29.4339 19.2044 29.75 20 29.75C20.7956 29.75 21.5587 29.4339 22.1213 28.8713C22.6839 28.3087 23 27.5456 23 26.75V26" stroke="#E3923B" stroke-width="1.8" stroke-linecap="round" stroke-linejoin="round"/>
</g>
<defs>
<clipPath id="clip0_4296_3692">
<rect width="40" height="40" fill="white"/>
</clipPath>
</defs>
</svg>
