<svg width="40" height="40" viewBox="0 0 40 40" fill="none" xmlns="http://www.w3.org/2000/svg">
<rect opacity="0.12" width="40" height="40" rx="20" fill="#EB4D3D"/>
<path d="M24.875 23C25.7034 23 26.375 22.3284 26.375 21.5C26.375 20.6716 25.7034 20 24.875 20C24.0466 20 23.375 20.6716 23.375 21.5C23.375 22.3284 24.0466 23 24.875 23Z" fill="#EB4D3D"/>
<path d="M11.7502 14.375V26C11.7502 26.3978 11.9082 26.7794 12.1895 27.0607C12.4708 27.342 12.8523 27.5 13.2502 27.5H28.2502C28.4491 27.5 28.6399 27.421 28.7805 27.2803C28.9212 27.1397 29.0002 26.9489 29.0002 26.75V17C29.0002 16.8011 28.9212 16.6103 28.7805 16.4697C28.6399 16.329 28.4491 16.25 28.2502 16.25H13.672C13.1799 16.2554 12.7048 16.07 12.3464 15.7326C11.9881 15.3953 11.7744 14.9322 11.7502 14.4406C11.7414 14.1889 11.7833 13.938 11.8736 13.7029C11.9639 13.4678 12.1006 13.2533 12.2756 13.0722C12.4506 12.891 12.6603 12.747 12.8922 12.6487C13.124 12.5504 13.3733 12.4998 13.6252 12.5H26.0002" stroke="#EB4D3D" stroke-width="1.8" stroke-linecap="round" stroke-linejoin="round"/>
</svg>
