<svg width="220" height="108" viewBox="0 0 220 108" fill="none" xmlns="http://www.w3.org/2000/svg">
<path fill-rule="evenodd" clip-rule="evenodd" d="M94.717 61.846C94.717 59.4483 93.0087 57.3931 89.8194 57.3931H79.3979V66.242H89.8194C92.8943 66.242 94.717 64.5862 94.717 61.846ZM93.977 46.3165C93.977 43.9188 92.2682 42.1488 89.5344 42.1488H79.3979V50.4274H89.5344C92.2682 50.4274 93.977 48.7142 93.977 46.3165ZM71.3108 73.2651V35.1836H91.2999C98.533 35.1836 102.235 39.808 102.235 44.8896C102.235 49.6855 99.2731 52.8824 95.6848 53.6243C99.7286 54.253 102.975 58.1924 102.975 62.9883C102.975 68.6971 99.1592 73.2651 91.9265 73.2651H71.3108Z" fill="#1A1919"/>
<path fill-rule="evenodd" clip-rule="evenodd" d="M117.043 56.194V66.1284H125.813C128.945 66.1284 131.223 64.1874 131.223 61.1609C131.223 58.0782 128.945 56.194 125.813 56.194H117.043ZM136.69 35.1836V42.3198H117.043V49.0573H126.895C134.982 49.0573 139.481 54.5956 139.481 61.1609C139.481 67.7273 135.038 73.2651 126.895 73.2651H108.956V35.1836H136.69Z" fill="#1A1919"/>
<path fill-rule="evenodd" clip-rule="evenodd" d="M166.817 47.4583C166.817 44.2614 164.425 42.3198 161.236 42.3198H152.637V52.5967H161.236C164.425 52.5967 166.817 50.5989 166.817 47.4583ZM144.55 73.2651V35.1836H162.318C170.576 35.1836 175.075 40.7782 175.075 47.4583C175.075 54.0815 170.519 59.734 162.318 59.734H152.637V73.2651H144.55Z" fill="#1A1919"/>
<path fill-rule="evenodd" clip-rule="evenodd" d="M201.717 47.4583C201.717 44.2614 199.325 42.3198 196.136 42.3198H187.536V52.5967H196.136C199.325 52.5967 201.717 50.5989 201.717 47.4583ZM179.449 73.2651V35.1836H197.217C205.475 35.1836 209.974 40.7782 209.974 47.4583C209.974 54.0815 205.418 59.734 197.217 59.734H187.536V73.2651H179.449Z" fill="#1A1919"/>
<path fill-rule="evenodd" clip-rule="evenodd" d="M17.5007 85.9694H209.95V81.7674H17.5007V85.9694Z" fill="#FBCE20"/>
<path fill-rule="evenodd" clip-rule="evenodd" d="M30.8133 72.6364L18.1631 73.3009L17.1023 53.0099L29.7525 52.3448L30.8133 72.6364Z" fill="#1A1919"/>
<path fill-rule="evenodd" clip-rule="evenodd" d="M54.3283 61.034L51.05 73.301L31.4731 68.0422L34.7513 55.7752L54.3283 61.034Z" fill="#1A1919"/>
<path fill-rule="evenodd" clip-rule="evenodd" d="M50.5771 34.9911L61.2019 41.9067L50.163 58.9481L39.5397 52.031L50.5771 34.9911Z" fill="#1A1919"/>
<path fill-rule="evenodd" clip-rule="evenodd" d="M24.764 30.4957L34.6084 22.5039L47.3627 38.294L37.5189 46.2858L24.764 30.4957Z" fill="#1A1919"/>
<path fill-rule="evenodd" clip-rule="evenodd" d="M12.5402 53.762L8 41.9067L26.9217 34.625L31.4609 46.4809L12.5402 53.762Z" fill="#1A1919"/>
</svg>
