<svg width="24" height="8" viewBox="0 0 24 8" fill="none" xmlns="http://www.w3.org/2000/svg">
<path fill-rule="evenodd" clip-rule="evenodd" d="M2.60361 0.856054C2.8096 0.854821 3.42179 0.799684 3.68111 1.67486C3.85578 2.2644 4.13403 3.23008 4.51585 4.5719H4.67135C5.08082 3.15726 5.36211 2.19158 5.51521 1.67486C5.77722 0.790568 6.43225 0.856071 6.69427 0.856071L8.71577 0.856074V7.14439H6.6554V3.43858H6.51724L5.36869 7.14439H3.81852L2.66997 3.43584H2.5318V7.14439H0.471436V0.856074L2.60361 0.856054ZM11.6744 0.856074V4.56465H11.8388L13.2359 1.51511C13.5071 0.908247 14.0851 0.856074 14.0851 0.856074H16.0789V7.14441H13.9755V3.43584H13.8112L12.4415 6.48537C12.1703 7.08949 11.5648 7.14441 11.5648 7.14441H9.57102V0.856074H11.6744ZM23.3492 3.84433C23.0558 4.67576 22.1344 5.27121 21.1143 5.27121H18.9085V7.14441H16.9083V3.84433H23.3492Z" fill="#0F754E"/>
<path fill-rule="evenodd" clip-rule="evenodd" d="M21.2109 0.856445H16.8035C16.9084 2.25644 18.114 3.45493 19.3621 3.45493H23.4883C23.7264 2.29137 22.9067 0.856445 21.2109 0.856445Z" fill="#0E8DEF"/>
</svg>
