<svg width="13" height="13" viewBox="0 0 13 13" fill="none" xmlns="http://www.w3.org/2000/svg">
<circle cx="6.5" cy="6.5" r="6" fill="#652A5B" stroke="white"/>
<path fill-rule="evenodd" clip-rule="evenodd" d="M7.24605 5.18198C7.38011 5.4234 7.29308 5.72779 7.05167 5.86185C6.81025 5.99591 6.50587 5.90888 6.3718 5.66746L5.34195 3.8129C5.20789 3.57148 5.29492 3.2671 5.53634 3.13304L7.3909 2.10318C7.63232 1.96912 7.9367 2.05615 8.07076 2.29757C8.20482 2.53899 8.11779 2.84337 7.87638 2.97743L6.45894 3.76455L7.24605 5.18198Z" fill="white"/>
<path d="M4.15944 5.10423C3.84176 5.63659 3.71507 6.26135 3.80028 6.87542C3.88548 7.48948 4.17749 8.05614 4.62811 8.4819C5.07874 8.90766 5.66105 9.16706 6.27895 9.21731C6.89686 9.26756 7.51343 9.10565 8.02693 8.75829C8.54042 8.41094 8.92015 7.8989 9.10345 7.30667C9.28675 6.71444 9.26266 6.07742 9.03517 5.50072C8.80768 4.92403 8.39038 4.44212 7.85212 4.13452C7.31387 3.82693 6.68683 3.71203 6.07448 3.80879" stroke="white" stroke-width="1.1" stroke-linecap="round" stroke-linejoin="round"/>
</svg>
